<svg width="54" height="54" viewBox="0 0 54 54" fill="none" xmlns="http://www.w3.org/2000/svg">
<g filter="url(#filter0_d_64_171)">
<circle cx="27" cy="25" r="25" fill="#FF7461"/>
<path d="M19.8571 23.9285C19.2654 23.9285 18.7857 24.4082 18.7857 24.9999C18.7857 25.5916 19.2654 26.0714 19.8571 26.0714V23.9285ZM27 26.0714C27.5917 26.0714 28.0714 25.5916 28.0714 24.9999C28.0714 24.4082 27.5917 23.9285 27 23.9285V26.0714ZM27 23.9285C26.4083 23.9285 25.9286 24.4082 25.9286 24.9999C25.9286 25.5916 26.4083 26.0714 27 26.0714V23.9285ZM34.1429 26.0714C34.7346 26.0714 35.2143 25.5916 35.2143 24.9999C35.2143 24.4082 34.7346 23.9285 34.1429 23.9285V26.0714ZM28.0714 24.9999C28.0714 24.4082 27.5917 23.9285 27 23.9285C26.4083 23.9285 25.9286 24.4082 25.9286 24.9999H28.0714ZM25.9286 32.1428C25.9286 32.7345 26.4083 33.2142 27 33.2142C27.5917 33.2142 28.0714 32.7345 28.0714 32.1428H25.9286ZM25.9286 24.9999C25.9286 25.5916 26.4083 26.0714 27 26.0714C27.5917 26.0714 28.0714 25.5916 28.0714 24.9999H25.9286ZM28.0714 17.8571C28.0714 17.2653 27.5917 16.7856 27 16.7856C26.4083 16.7856 25.9286 17.2653 25.9286 17.8571H28.0714ZM19.8571 26.0714H27V23.9285H19.8571V26.0714ZM27 26.0714H34.1429V23.9285H27V26.0714ZM27 24.9999H25.9286V25.0014C25.9286 25.0015 25.9286 25.0031 25.9286 25.0031C25.9286 25.0029 25.9286 25.0032 25.9286 25.0031C25.9286 25.0031 25.9286 25.0046 25.9286 25.0048C25.9286 25.0046 25.9286 25.0049 25.9286 25.0048C25.9286 25.0049 25.9286 25.0061 25.9286 25.0062C25.9286 25.0064 25.9286 25.0076 25.9286 25.0078C25.9286 25.0079 25.9286 25.0091 25.9286 25.0092C25.9286 25.0094 25.9286 25.0106 25.9286 25.0109C25.9286 25.0111 25.9286 25.0124 25.9286 25.0126C25.9286 25.0128 25.9286 25.0144 25.9286 25.0145C25.9286 25.0142 25.9286 25.0148 25.9286 25.0145C25.9286 25.0148 25.9286 25.0156 25.9286 25.0159C25.9286 25.0156 25.9286 25.0162 25.9286 25.0159C25.9286 25.0162 25.9286 25.0172 25.9286 25.0174C25.9286 25.0171 25.9286 25.0176 25.9286 25.0174C25.9286 25.0176 25.9286 25.0186 25.9286 25.0189C25.9286 25.0186 25.9286 25.0192 25.9286 25.0189C25.9286 25.0192 25.9286 25.0204 25.9286 25.0206C25.9286 25.0204 25.9286 25.0209 25.9286 25.0206C25.9286 25.0209 25.9286 25.0221 25.9286 25.0224C25.9286 25.0219 25.9286 25.0226 25.9286 25.0224C25.9286 25.0226 25.9286 25.0239 25.9286 25.0242C25.9286 25.0239 25.9286 25.0245 25.9286 25.0242C25.9286 25.0245 25.9286 25.0258 25.9286 25.0262C25.9286 25.0258 25.9286 25.0265 25.9286 25.0262C25.9286 25.0265 25.9286 25.0279 25.9286 25.0282C25.9286 25.0279 25.9286 25.0285 25.9286 25.0282C25.9286 25.0286 25.9286 25.0299 25.9286 25.0304C25.9286 25.0299 25.9286 25.0308 25.9286 25.0304C25.9286 25.0306 25.9286 25.0322 25.9286 25.0326C25.9286 25.0322 25.9286 25.0329 25.9286 25.0326C25.9286 25.0331 25.9286 25.0345 25.9286 25.0349C25.9286 25.0345 25.9286 25.0354 25.9286 25.0349C25.9286 25.0354 25.9286 25.0371 25.9286 25.0375C25.9286 25.0371 25.9286 25.0379 25.9286 25.0375C25.9286 25.0379 25.9286 25.0396 25.9286 25.0401C25.9286 25.0396 25.9286 25.0405 25.9286 25.0401C25.9286 25.0405 25.9286 25.0422 25.9286 25.0428C25.9286 25.0424 25.9286 25.0432 25.9286 25.0428C25.9286 25.0434 25.9286 25.0451 25.9286 25.0455C25.9286 25.0461 25.9286 25.0465 25.9286 25.0471C25.9286 25.0475 25.9286 25.0479 25.9286 25.0485C25.9286 25.0491 25.9286 25.0495 25.9286 25.0501C25.9286 25.0505 25.9286 25.0511 25.9286 25.0515C25.9286 25.0521 25.9286 25.0526 25.9286 25.0532C25.9286 25.0536 25.9286 25.0542 25.9286 25.0548C25.9286 25.0554 25.9286 25.0558 25.9286 25.0564C25.9286 25.0569 25.9286 25.0575 25.9286 25.0581C25.9286 25.0586 25.9286 25.0592 25.9286 25.0598C25.9286 25.0604 25.9286 25.0609 25.9286 25.0615C25.9286 25.0621 25.9286 25.0628 25.9286 25.0634C25.9286 25.0639 25.9286 25.0645 25.9286 25.0651C25.9286 25.0658 25.9286 25.0664 25.9286 25.0669C25.9286 25.0676 25.9286 25.0682 25.9286 25.0688C25.9286 25.0695 25.9286 25.0701 25.9286 25.0708C25.9286 25.0714 25.9286 25.0721 25.9286 25.0726C25.9286 25.0734 25.9286 25.0741 25.9286 25.0746C25.9286 25.0754 25.9286 25.0761 25.9286 25.0768C25.9286 25.0774 25.9286 25.0781 25.9286 25.0788C25.9286 25.0795 25.9286 25.0802 25.9286 25.0809C25.9286 25.0815 25.9286 25.0822 25.9286 25.0829C25.9286 25.0836 25.9286 25.0845 25.9286 25.0852C25.9286 25.0859 25.9286 25.0866 25.9286 25.0874C25.9286 25.0881 25.9286 25.0888 25.9286 25.0896C25.9286 25.0904 25.9286 25.0911 25.9286 25.0919C25.9286 25.0926 25.9286 25.0935 25.9286 25.0942C25.9286 25.0949 25.9286 25.0958 25.9286 25.0965C25.9286 25.0974 25.9286 25.0982 25.9286 25.0989C25.9286 25.0998 25.9286 25.1006 25.9286 25.1014C25.9286 25.1022 25.9286 25.1031 25.9286 25.1039C25.9286 25.1046 25.9286 25.1055 25.9286 25.1064C25.9286 25.1072 25.9286 25.1081 25.9286 25.1089C25.9286 25.1098 25.9286 25.1106 25.9286 25.1115C25.9286 25.1124 25.9286 25.1134 25.9286 25.1142C25.9286 25.1151 25.9286 25.1159 25.9286 25.1168C25.9286 25.1178 25.9286 25.1186 25.9286 25.1195C25.9286 25.1205 25.9286 25.1214 25.9286 25.1224C25.9286 25.1232 25.9286 25.1242 25.9286 25.1251C25.9286 25.1261 25.9286 25.1271 25.9286 25.1279C25.9286 25.1289 25.9286 25.1299 25.9286 25.1309C25.9286 25.1318 25.9286 25.1328 25.9286 25.1338C25.9286 25.1348 25.9286 25.1358 25.9286 25.1368C25.9286 25.1378 25.9286 25.1388 25.9286 25.1398C25.9286 25.1408 25.9286 25.1418 25.9286 25.1428C25.9286 25.1439 25.9286 25.1449 25.9286 25.1459C25.9286 25.1471 25.9286 25.1481 25.9286 25.1491C25.9286 25.1502 25.9286 25.1512 25.9286 25.1524C25.9286 25.1534 25.9286 25.1545 25.9286 25.1555C25.9286 25.1566 25.9286 25.1578 25.9286 25.1588C25.9286 25.1599 25.9286 25.1611 25.9286 25.1622C25.9286 25.1634 25.9286 25.1644 25.9286 25.1655C25.9286 25.1666 25.9286 25.1678 25.9286 25.1689C25.9286 25.1701 25.9286 25.1714 25.9286 25.1725C25.9286 25.1736 25.9286 25.1748 25.9286 25.1759C25.9286 25.1772 25.9286 25.1784 25.9286 25.1795C25.9286 25.1808 25.9286 25.1819 25.9286 25.1832C25.9286 25.1844 25.9286 25.1856 25.9286 25.1868C25.9286 25.1881 25.9286 25.1894 25.9286 25.1905C25.9286 25.1918 25.9286 25.1931 25.9286 25.1944C25.9286 25.1955 25.9286 25.1968 25.9286 25.1981C25.9286 25.1994 25.9286 25.2006 25.9286 25.2019C25.9286 25.2032 25.9286 25.2045 25.9286 25.2059C25.9286 25.2072 25.9286 25.2085 25.9286 25.2098C25.9286 25.2112 25.9286 25.2125 25.9286 25.2138C25.9286 25.2152 25.9286 25.2165 25.9286 25.2179C25.9286 25.2192 25.9286 25.2206 25.9286 25.2221C25.9286 25.2234 25.9286 25.2248 25.9286 25.2262C25.9286 25.2276 25.9286 25.2289 25.9286 25.2304C25.9286 25.2318 25.9286 25.2332 25.9286 25.2346C25.9286 25.2361 25.9286 25.2375 25.9286 25.2389C25.9286 25.2405 25.9286 25.2419 25.9286 25.2434C25.9286 25.2448 25.9286 25.2464 25.9286 25.2478C25.9286 25.2492 25.9286 25.2508 25.9286 25.2522C25.9286 25.2538 25.9286 25.2552 25.9286 25.2568C25.9286 25.2584 25.9286 25.2598 25.9286 25.2614C25.9286 25.2629 25.9286 25.2645 25.9286 25.2661C25.9286 25.2676 25.9286 25.2692 25.9286 25.2708C25.9286 25.2724 25.9286 25.2739 25.9286 25.2755C25.9286 25.2771 25.9286 25.2786 25.9286 25.2802C25.9286 25.2819 25.9286 25.2835 25.9286 25.2852C25.9286 25.2868 25.9286 25.2884 25.9286 25.2901C25.9286 25.2916 25.9286 25.2934 25.9286 25.2951C25.9286 25.2966 25.9286 25.2984 25.9286 25.3001C25.9286 25.3018 25.9286 25.3035 25.9286 25.3052C25.9286 25.3069 25.9286 25.3086 25.9286 25.3104C25.9286 25.3121 25.9286 25.3138 25.9286 25.3155C25.9286 25.3172 25.9286 25.3189 25.9286 25.3208C25.9286 25.3225 25.9286 25.3244 25.9286 25.3261C25.9286 25.3279 25.9286 25.3296 25.9286 25.3315C25.9286 25.3332 25.9286 25.3351 25.9286 25.3369C25.9286 25.3386 25.9286 25.3405 25.9286 25.3424C25.9286 25.3442 25.9286 25.3461 25.9286 25.3479C25.9286 25.3498 25.9286 25.3516 25.9286 25.3535C25.9286 25.3554 25.9286 25.3574 25.9286 25.3592C25.9286 25.3611 25.9286 25.3631 25.9286 25.3649C25.9286 25.3669 25.9286 25.3688 25.9286 25.3708C25.9286 25.3726 25.9286 25.3746 25.9286 25.3766C25.9286 25.3785 25.9286 25.3805 25.9286 25.3825C25.9286 25.3845 25.9286 25.3865 25.9286 25.3885C25.9286 25.3905 25.9286 25.3925 25.9286 25.3945C25.9286 25.3965 25.9286 25.3986 25.9286 25.4006C25.9286 25.4026 25.9286 25.4048 25.9286 25.4068C25.9286 25.4089 25.9286 25.4109 25.9286 25.4131C25.9286 25.4151 25.9286 25.4172 25.9286 25.4194C25.9286 25.4215 25.9286 25.4235 25.9286 25.4256C25.9286 25.4278 25.9286 25.4299 25.9286 25.4321C25.9286 25.4342 25.9286 25.4364 25.9286 25.4386C25.9286 25.4408 25.9286 25.4429 25.9286 25.4451C25.9286 25.4474 25.9286 25.4495 25.9286 25.4518C25.9286 25.4539 25.9286 25.4562 25.9286 25.4584C25.9286 25.4606 25.9286 25.4629 25.9286 25.4652C25.9286 25.4674 25.9286 25.4696 25.9286 25.4719C25.9286 25.4742 25.9286 25.4765 25.9286 25.4788C25.9286 25.4811 25.9286 25.4835 25.9286 25.4858C25.9286 25.4881 25.9286 25.4905 25.9286 25.4928C25.9286 25.4951 25.9286 25.4975 25.9286 25.4999C25.9286 25.5022 25.9286 25.5046 25.9286 25.5071C25.9286 25.5094 25.9286 25.5118 25.9286 25.5142C25.9286 25.5166 25.9286 25.5191 25.9286 25.5215C25.9286 25.5239 25.9286 25.5264 25.9286 25.5288C25.9286 25.5314 25.9286 25.5338 25.9286 25.5362C25.9286 25.5388 25.9286 25.5412 25.9286 25.5438C25.9286 25.5462 25.9286 25.5488 25.9286 25.5512C25.9286 25.5538 25.9286 25.5564 25.9286 25.5589C25.9286 25.5615 25.9286 25.5641 25.9286 25.5666C25.9286 25.5692 25.9286 25.5718 25.9286 25.5744C25.9286 25.5769 25.9286 25.5795 25.9286 25.5822C25.9286 25.5848 25.9286 25.5875 25.9286 25.5901C25.9286 25.5928 25.9286 25.5954 25.9286 25.5981C25.9286 25.6008 25.9286 25.6034 25.9286 25.6061C25.9286 25.6088 25.9286 25.6115 25.9286 25.6142C25.9286 25.6169 25.9286 25.6196 25.9286 25.6225C25.9286 25.6252 25.9286 25.6279 25.9286 25.6306C25.9286 25.6335 25.9286 25.6362 25.9286 25.6391C25.9286 25.6418 25.9286 25.6446 25.9286 25.6475C25.9286 25.6502 25.9286 25.6531 25.9286 25.6559C25.9286 25.6588 25.9286 25.6616 25.9286 25.6645C25.9286 25.6674 25.9286 25.6702 25.9286 25.6731C25.9286 25.6759 25.9286 25.6789 25.9286 25.6818C25.9286 25.6848 25.9286 25.6876 25.9286 25.6906C25.9286 25.6935 25.9286 25.6965 25.9286 25.6995C25.9286 25.7024 25.9286 25.7054 25.9286 25.7084C25.9286 25.7114 25.9286 25.7144 25.9286 25.7174C25.9286 25.7204 25.9286 25.7234 25.9286 25.7265C25.9286 25.7295 25.9286 25.7325 25.9286 25.7356C25.9286 25.7386 25.9286 25.7418 25.9286 25.7448C25.9286 25.7479 25.9286 25.7511 25.9286 25.7542C25.9286 25.7572 25.9286 25.7604 25.9286 25.7635C25.9286 25.7666 25.9286 25.7698 25.9286 25.7731C25.9286 25.7762 25.9286 25.7794 25.9286 25.7825C25.9286 25.7858 25.9286 25.7889 25.9286 25.7922C25.9286 25.7954 25.9286 25.7986 25.9286 25.8019C25.9286 25.8051 25.9286 25.8084 25.9286 25.8116C25.9286 25.8149 25.9286 25.8182 25.9286 25.8215C25.9286 25.8248 25.9286 25.8281 25.9286 25.8315C25.9286 25.8348 25.9286 25.8381 25.9286 25.8415C25.9286 25.8448 25.9286 25.8482 25.9286 25.8516C25.9286 25.8549 25.9286 25.8584 25.9286 25.8618C25.9286 25.8652 25.9286 25.8686 25.9286 25.8721C25.9286 25.8755 25.9286 25.8789 25.9286 25.8824C25.9286 25.8858 25.9286 25.8894 25.9286 25.8928C25.9286 25.8962 25.9286 25.8998 25.9286 25.9034C25.9286 25.9068 25.9286 25.9104 25.9286 25.9139C25.9286 25.9174 25.9286 25.9209 25.9286 25.9245C25.9286 25.9281 25.9286 25.9316 25.9286 25.9354C25.9286 25.9389 25.9286 25.9425 25.9286 25.9461C25.9286 25.9498 25.9286 25.9534 25.9286 25.9571C25.9286 25.9606 25.9286 25.9644 25.9286 25.9681C25.9286 25.9718 25.9286 25.9754 25.9286 25.9791C25.9286 25.9828 25.9286 25.9865 25.9286 25.9904C25.9286 25.9941 25.9286 25.9978 25.9286 26.0015C25.9286 26.0054 25.9286 26.0091 25.9286 26.0129C25.9286 26.0166 25.9286 26.0205 25.9286 26.0244C25.9286 26.0282 25.9286 26.0319 25.9286 26.0358C25.9286 26.0396 25.9286 26.0435 25.9286 26.0474C25.9286 26.0514 25.9286 26.0552 25.9286 26.0591C25.9286 26.0631 25.9286 26.0669 25.9286 26.0709C25.9286 26.0748 25.9286 26.0788 25.9286 26.0828C25.9286 26.0866 25.9286 26.0906 25.9286 26.0946C25.9286 26.0986 25.9286 26.1026 25.9286 26.1066C25.9286 26.1108 25.9286 26.1148 25.9286 26.1188C25.9286 26.1229 25.9286 26.1269 25.9286 26.1311C25.9286 26.1351 25.9286 26.1392 25.9286 26.1434C25.9286 26.1475 25.9286 26.1515 25.9286 26.1556C25.9286 26.1598 25.9286 26.1641 25.9286 26.1682C25.9286 26.1724 25.9286 26.1765 25.9286 26.1808C25.9286 26.1849 25.9286 26.1892 25.9286 26.1934C25.9286 26.1976 25.9286 26.2019 25.9286 26.2061C25.9286 26.2104 25.9286 26.2146 25.9286 26.2189C25.9286 26.2232 25.9286 26.2275 25.9286 26.2319C25.9286 26.2362 25.9286 26.2405 25.9286 26.2449C25.9286 26.2492 25.9286 26.2536 25.9286 26.2581C25.9286 26.2624 25.9286 26.2668 25.9286 26.2712C25.9286 26.2756 25.9286 26.2801 25.9286 26.2845C25.9286 26.2889 25.9286 26.2934 25.9286 26.2979C25.9286 26.3024 25.9286 26.3068 25.9286 26.3114C25.9286 26.3158 25.9286 26.3204 25.9286 26.3249C25.9286 26.3295 25.9286 26.3341 25.9286 26.3386C25.9286 26.3431 25.9286 26.3478 25.9286 26.3524C25.9286 26.3569 25.9286 26.3615 25.9286 26.3662C25.9286 26.3708 25.9286 26.3755 25.9286 26.3801C25.9286 26.3848 25.9286 26.3895 25.9286 26.3942C25.9286 26.3988 25.9286 26.4035 25.9286 26.4082C25.9286 26.4131 25.9286 26.4178 25.9286 26.4225C25.9286 26.4272 25.9286 26.4321 25.9286 26.4368C25.9286 26.4416 25.9286 26.4464 25.9286 26.4512C25.9286 26.4561 25.9286 26.4609 25.9286 26.4658C25.9286 26.4706 25.9286 26.4755 25.9286 26.4804C25.9286 26.4852 25.9286 26.4902 25.9286 26.4951C25.9286 26.4999 25.9286 26.5049 25.9286 26.5099C25.9286 26.5148 25.9286 26.5198 25.9286 26.5248C25.9286 26.5298 25.9286 26.5348 25.9286 26.5398C25.9286 26.5448 25.9286 26.5498 25.9286 26.5549C25.9286 26.5599 25.9286 26.5649 25.9286 26.5701C25.9286 26.5752 25.9286 26.5802 25.9286 26.5854C25.9286 26.5905 25.9286 26.5956 25.9286 26.6008C25.9286 26.6059 25.9286 26.6111 25.9286 26.6162C25.9286 26.6214 25.9286 26.6266 25.9286 26.6318C25.9286 26.6371 25.9286 26.6422 25.9286 26.6475C25.9286 26.6528 25.9286 26.6581 25.9286 26.6634C25.9286 26.6686 25.9286 26.6739 25.9286 26.6792C25.9286 26.6845 25.9286 26.6898 25.9286 26.6952C25.9286 26.7005 25.9286 26.7059 25.9286 26.7114C25.9286 26.7166 25.9286 26.7221 25.9286 26.7275C25.9286 26.7329 25.9286 26.7384 25.9286 26.7438C25.9286 26.7492 25.9286 26.7546 25.9286 26.7602C25.9286 26.7656 25.9286 26.7712 25.9286 26.7766C25.9286 26.7822 25.9286 26.7878 25.9286 26.7934C25.9286 26.7988 25.9286 26.8044 25.9286 26.8101C25.9286 26.8156 25.9286 26.8212 25.9286 26.8268C25.9286 26.8325 25.9286 26.8381 25.9286 26.8438C25.9286 26.8494 25.9286 26.8551 25.9286 26.8608C25.9286 26.8665 25.9286 26.8722 25.9286 26.8779C25.9286 26.8836 25.9286 26.8894 25.9286 26.8951C25.9286 26.9009 25.9286 26.9066 25.9286 26.9125C25.9286 26.9182 25.9286 26.9241 25.9286 26.9299C25.9286 26.9356 25.9286 26.9415 25.9286 26.9474C25.9286 26.9534 25.9286 26.9592 25.9286 26.9651C25.9286 26.9709 25.9286 26.9769 25.9286 26.9828C25.9286 26.9888 25.9286 26.9948 25.9286 27.0006C25.9286 27.0066 25.9286 27.0126 25.9286 27.0186C25.9286 27.0246 25.9286 27.0306 25.9286 27.0368C25.9286 27.0428 25.9286 27.0488 25.9286 27.0549C25.9286 27.0611 25.9286 27.0671 25.9286 27.0732C25.9286 27.0794 25.9286 27.0855 25.9286 27.0916C25.9286 27.0978 25.9286 27.1039 25.9286 27.1101C25.9286 27.1164 25.9286 27.1225 25.9286 27.1288C25.9286 27.1349 25.9286 27.1412 25.9286 27.1475C25.9286 27.1538 25.9286 27.1601 25.9286 27.1664C25.9286 27.1726 25.9286 27.1789 25.9286 27.1852C25.9286 27.1916 25.9286 27.1979 25.9286 27.2044C25.9286 27.2106 25.9286 27.2171 25.9286 27.2235C25.9286 27.2299 25.9286 27.2364 25.9286 27.2428C25.9286 27.2492 25.9286 27.2556 25.9286 27.2622C25.9286 27.2686 25.9286 27.2752 25.9286 27.2816C25.9286 27.2882 25.9286 27.2948 25.9286 27.3012C25.9286 27.3078 25.9286 27.3144 25.9286 27.3211C25.9286 27.3276 25.9286 27.3342 25.9286 27.3408C25.9286 27.3475 25.9286 27.3541 25.9286 27.3608C25.9286 27.3675 25.9286 27.3742 25.9286 27.3809C25.9286 27.3875 25.9286 27.3944 25.9286 27.4011C25.9286 27.4078 25.9286 27.4145 25.9286 27.4214C25.9286 27.4281 25.9286 27.4349 25.9286 27.4418C25.9286 27.4485 25.9286 27.4554 25.9286 27.4622C25.9286 27.4691 25.9286 27.4759 25.9286 27.4829C25.9286 27.4898 25.9286 27.4966 25.9286 27.5036C25.9286 27.5106 25.9286 27.5175 25.9286 27.5245C25.9286 27.5315 25.9286 27.5385 25.9286 27.5455C25.9286 27.5525 25.9286 27.5595 25.9286 27.5666C25.9286 27.5736 25.9286 27.5806 25.9286 27.5878C25.9286 27.5949 25.9286 27.6019 25.9286 27.6091C25.9286 27.6162 25.9286 27.6234 25.9286 27.6305C25.9286 27.6378 25.9286 27.6449 25.9286 27.6521C25.9286 27.6594 25.9286 27.6665 25.9286 27.6738C25.9286 27.6811 25.9286 27.6884 25.9286 27.6956C25.9286 27.7029 25.9286 27.7102 25.9286 27.7175C25.9286 27.7248 25.9286 27.7322 25.9286 27.7395C25.9286 27.7469 25.9286 27.7544 25.9286 27.7616C25.9286 27.7691 25.9286 27.7765 25.9286 27.7839C25.9286 27.7914 25.9286 27.7989 25.9286 27.8064C25.9286 27.8138 25.9286 27.8214 25.9286 27.8289C25.9286 27.8364 25.9286 27.8439 25.9286 27.8515C25.9286 27.8591 25.9286 27.8666 25.9286 27.8742C25.9286 27.8819 25.9286 27.8895 25.9286 27.8971C25.9286 27.9048 25.9286 27.9125 25.9286 27.9201C25.9286 27.9278 25.9286 27.9355 25.9286 27.9432C25.9286 27.9509 25.9286 27.9588 25.9286 27.9665C25.9286 27.9742 25.9286 27.9821 25.9286 27.9898C25.9286 27.9976 25.9286 28.0055 25.9286 28.0134C25.9286 28.0212 25.9286 28.0291 25.9286 28.0369C25.9286 28.0448 25.9286 28.0528 25.9286 28.0606C25.9286 28.0686 25.9286 28.0765 25.9286 28.0845C25.9286 28.0925 25.9286 28.1005 25.9286 28.1085C25.9286 28.1165 25.9286 28.1245 25.9286 28.1326C25.9286 28.1406 25.9286 28.1486 25.9286 28.1568C25.9286 28.1649 25.9286 28.1731 25.9286 28.1811C25.9286 28.1892 25.9286 28.1975 25.9286 28.2056C25.9286 28.2138 25.9286 28.2219 25.9286 28.2302C25.9286 28.2384 25.9286 28.2466 25.9286 28.2549C25.9286 28.2632 25.9286 28.2715 25.9286 28.2798C25.9286 28.2881 25.9286 28.2964 25.9286 28.3048C25.9286 28.3131 25.9286 28.3215 25.9286 28.3298C25.9286 28.3382 25.9286 28.3466 25.9286 28.3551C25.9286 28.3635 25.9286 28.3719 25.9286 28.3804C25.9286 28.3889 25.9286 28.3974 25.9286 28.4059C25.9286 28.4144 25.9286 28.4229 25.9286 28.4315C25.9286 28.4401 25.9286 28.4486 25.9286 28.4572C25.9286 28.4658 25.9286 28.4745 25.9286 28.4831C25.9286 28.4918 25.9286 28.5004 25.9286 28.5091C25.9286 28.5178 25.9286 28.5265 25.9286 28.5352C25.9286 28.5439 25.9286 28.5528 25.9286 28.5615C25.9286 28.5702 25.9286 28.5791 25.9286 28.5879C25.9286 28.5966 25.9286 28.6055 25.9286 28.6144C25.9286 28.6232 25.9286 28.6321 25.9286 28.6411C25.9286 28.6499 25.9286 28.6588 25.9286 28.6678C25.9286 28.6768 25.9286 28.6856 25.9286 28.6946C25.9286 28.7036 25.9286 28.7126 25.9286 28.7218C25.9286 28.7308 25.9286 28.7398 25.9286 28.7489C25.9286 28.7579 25.9286 28.7671 25.9286 28.7762C25.9286 28.7854 25.9286 28.7945 25.9286 28.8036C25.9286 28.8128 25.9286 28.8219 25.9286 28.8312C25.9286 28.8404 25.9286 28.8496 25.9286 28.8589C25.9286 28.8681 25.9286 28.8774 25.9286 28.8868C25.9286 28.8961 25.9286 28.9054 25.9286 28.9146C25.9286 28.9241 25.9286 28.9334 25.9286 28.9428C25.9286 28.9522 25.9286 28.9616 25.9286 28.9711C25.9286 28.9805 25.9286 28.9899 25.9286 28.9994C25.9286 29.0088 25.9286 29.0184 25.9286 29.0279C25.9286 29.0374 25.9286 29.0469 25.9286 29.0565C25.9286 29.0661 25.9286 29.0756 25.9286 29.0852C25.9286 29.0949 25.9286 29.1045 25.9286 29.1142C25.9286 29.1238 25.9286 29.1335 25.9286 29.1432C25.9286 29.1529 25.9286 29.1626 25.9286 29.1724C25.9286 29.1822 25.9286 29.1919 25.9286 29.2018C25.9286 29.2115 25.9286 29.2214 25.9286 29.2312C25.9286 29.2411 25.9286 29.2509 25.9286 29.2608C25.9286 29.2706 25.9286 29.2805 25.9286 29.2905C25.9286 29.3004 25.9286 29.3104 25.9286 29.3204C25.9286 29.3304 25.9286 29.3404 25.9286 29.3504C25.9286 29.3604 25.9286 29.3704 25.9286 29.3805C25.9286 29.3905 25.9286 29.4006 25.9286 29.4108C25.9286 29.4209 25.9286 29.4311 25.9286 29.4412C25.9286 29.4514 25.9286 29.4615 25.9286 29.4718C25.9286 29.4819 25.9286 29.4922 25.9286 29.5025C25.9286 29.5126 25.9286 29.5229 25.9286 29.5334C25.9286 29.5436 25.9286 29.5539 25.9286 29.5642C25.9286 29.5746 25.9286 29.5849 25.9286 29.5954C25.9286 29.6058 25.9286 29.6162 25.9286 29.6266C25.9286 29.6371 25.9286 29.6475 25.9286 29.6581C25.9286 29.6685 25.9286 29.6791 25.9286 29.6896C25.9286 29.7001 25.9286 29.7106 25.9286 29.7212C25.9286 29.7319 25.9286 29.7425 25.9286 29.7531C25.9286 29.7638 25.9286 29.7744 25.9286 29.7851C25.9286 29.7958 25.9286 29.8065 25.9286 29.8172C25.9286 29.8279 25.9286 29.8386 25.9286 29.8495C25.9286 29.8602 25.9286 29.8711 25.9286 29.8819C25.9286 29.8926 25.9286 29.9035 25.9286 29.9144C25.9286 29.9252 25.9286 29.9362 25.9286 29.9471C25.9286 29.9581 25.9286 29.9689 25.9286 29.9799C25.9286 29.9909 25.9286 30.0019 25.9286 30.0129C25.9286 30.0239 25.9286 30.0349 25.9286 30.0461C25.9286 30.0571 25.9286 30.0682 25.9286 30.0794C25.9286 30.0904 25.9286 30.1015 25.9286 30.1128C25.9286 30.1239 25.9286 30.1351 25.9286 30.1464C25.9286 30.1575 25.9286 30.1688 25.9286 30.1799C25.9286 30.1912 25.9286 30.2025 25.9286 30.2138C25.9286 30.2252 25.9286 30.2365 25.9286 30.2479C25.9286 30.2592 25.9286 30.2706 25.9286 30.2821C25.9286 30.2934 25.9286 30.3048 25.9286 30.3164C25.9286 30.3278 25.9286 30.3392 25.9286 30.3508C25.9286 30.3622 25.9286 30.3738 25.9286 30.3854C25.9286 30.3969 25.9286 30.4085 25.9286 30.4201C25.9286 30.4316 25.9286 30.4434 25.9286 30.4549C25.9286 30.4666 25.9286 30.4784 25.9286 30.4901C25.9286 30.5018 25.9286 30.5135 25.9286 30.5252C25.9286 30.5369 25.9286 30.5488 25.9286 30.5605C25.9286 30.5724 25.9286 30.5842 25.9286 30.5961C25.9286 30.6079 25.9286 30.6198 25.9286 30.6316C25.9286 30.6436 25.9286 30.6555 25.9286 30.6675C25.9286 30.6795 25.9286 30.6915 25.9286 30.7035C25.9286 30.7155 25.9286 30.7275 25.9286 30.7395C25.9286 30.7516 25.9286 30.7636 25.9286 30.7758C25.9286 30.7879 25.9286 30.8001 25.9286 30.8122C25.9286 30.8244 25.9286 30.8365 25.9286 30.8488C25.9286 30.8609 25.9286 30.8732 25.9286 30.8855C25.9286 30.8978 25.9286 30.9101 25.9286 30.9224C25.9286 30.9346 25.9286 30.9469 25.9286 30.9594C25.9286 30.9716 25.9286 30.9841 25.9286 30.9965C25.9286 31.0089 25.9286 31.0214 25.9286 31.0338C25.9286 31.0464 25.9286 31.0588 25.9286 31.0714C25.9286 31.0838 25.9286 31.0964 25.9286 31.1089C25.9286 31.1215 25.9286 31.1341 25.9286 31.1468C25.9286 31.1594 25.9286 31.1719 25.9286 31.1846C25.9286 31.1974 25.9286 31.2101 25.9286 31.2228C25.9286 31.2355 25.9286 31.2482 25.9286 31.2611C25.9286 31.2738 25.9286 31.2866 25.9286 31.2995C25.9286 31.3122 25.9286 31.3251 25.9286 31.3381C25.9286 31.3509 25.9286 31.3638 25.9286 31.3768C25.9286 31.3896 25.9286 31.4026 25.9286 31.4156C25.9286 31.4286 25.9286 31.4416 25.9286 31.4546C25.9286 31.4676 25.9286 31.4808 25.9286 31.4938C25.9286 31.5069 25.9286 31.5201 25.9286 31.5332C25.9286 31.5464 25.9286 31.5595 25.9286 31.5728C25.9286 31.5859 25.9286 31.5992 25.9286 31.6124C25.9286 31.6256 25.9286 31.6389 25.9286 31.6522C25.9286 31.6655 25.9286 31.6789 25.9286 31.6922C25.9286 31.7056 25.9286 31.7189 25.9286 31.7324C25.9286 31.7458 25.9286 31.7592 25.9286 31.7726C25.9286 31.7862 25.9286 31.7996 25.9286 31.8132C25.9286 31.8266 25.9286 31.8402 25.9286 31.8538C25.9286 31.8674 25.9286 31.8809 25.9286 31.8946C25.9286 31.9082 25.9286 31.9219 25.9286 31.9355C25.9286 31.9492 25.9286 31.9629 25.9286 31.9766C25.9286 31.9904 25.9286 32.0042 25.9286 32.0179C25.9286 32.0318 25.9286 32.0455 25.9286 32.0594C25.9286 32.0732 25.9286 32.0871 25.9286 32.1011C25.9286 32.1149 25.9286 32.1288 25.9286 32.1428H28.0714C28.0714 32.1288 28.0714 32.1149 28.0714 32.1011C28.0714 32.0871 28.0714 32.0732 28.0714 32.0594C28.0714 32.0455 28.0714 32.0318 28.0714 32.0179C28.0714 32.0042 28.0714 31.9904 28.0714 31.9766C28.0714 31.9629 28.0714 31.9492 28.0714 31.9355C28.0714 31.9219 28.0714 31.9082 28.0714 31.8946C28.0714 31.8809 28.0714 31.8674 28.0714 31.8538C28.0714 31.8402 28.0714 31.8266 28.0714 31.8132C28.0714 31.7996 28.0714 31.7862 28.0714 31.7726C28.0714 31.7592 28.0714 31.7458 28.0714 31.7324C28.0714 31.7189 28.0714 31.7056 28.0714 31.6922C28.0714 31.6789 28.0714 31.6655 28.0714 31.6522C28.0714 31.6389 28.0714 31.6256 28.0714 31.6124C28.0714 31.5992 28.0714 31.5859 28.0714 31.5728C28.0714 31.5595 28.0714 31.5464 28.0714 31.5332C28.0714 31.5201 28.0714 31.5069 28.0714 31.4938C28.0714 31.4808 28.0714 31.4676 28.0714 31.4546C28.0714 31.4416 28.0714 31.4286 28.0714 31.4156C28.0714 31.4026 28.0714 31.3896 28.0714 31.3768C28.0714 31.3638 28.0714 31.3509 28.0714 31.3381C28.0714 31.3251 28.0714 31.3122 28.0714 31.2995C28.0714 31.2866 28.0714 31.2738 28.0714 31.2611C28.0714 31.2482 28.0714 31.2355 28.0714 31.2228C28.0714 31.2101 28.0714 31.1974 28.0714 31.1846C28.0714 31.1719 28.0714 31.1594 28.0714 31.1468C28.0714 31.1341 28.0714 31.1215 28.0714 31.1089C28.0714 31.0964 28.0714 31.0838 28.0714 31.0714C28.0714 31.0588 28.0714 31.0464 28.0714 31.0338C28.0714 31.0214 28.0714 31.0089 28.0714 30.9965C28.0714 30.9841 28.0714 30.9716 28.0714 30.9594C28.0714 30.9469 28.0714 30.9346 28.0714 30.9224C28.0714 30.9101 28.0714 30.8978 28.0714 30.8855C28.0714 30.8732 28.0714 30.8609 28.0714 30.8488C28.0714 30.8365 28.0714 30.8244 28.0714 30.8122C28.0714 30.8001 28.0714 30.7879 28.0714 30.7758C28.0714 30.7636 28.0714 30.7516 28.0714 30.7395C28.0714 30.7275 28.0714 30.7155 28.0714 30.7035C28.0714 30.6915 28.0714 30.6795 28.0714 30.6675C28.0714 30.6555 28.0714 30.6436 28.0714 30.6316C28.0714 30.6198 28.0714 30.6079 28.0714 30.5961C28.0714 30.5842 28.0714 30.5724 28.0714 30.5605C28.0714 30.5488 28.0714 30.5369 28.0714 30.5252C28.0714 30.5135 28.0714 30.5018 28.0714 30.4901C28.0714 30.4784 28.0714 30.4666 28.0714 30.4549C28.0714 30.4434 28.0714 30.4316 28.0714 30.4201C28.0714 30.4085 28.0714 30.3969 28.0714 30.3854C28.0714 30.3738 28.0714 30.3622 28.0714 30.3508C28.0714 30.3392 28.0714 30.3278 28.0714 30.3164C28.0714 30.3048 28.0714 30.2934 28.0714 30.2821C28.0714 30.2706 28.0714 30.2592 28.0714 30.2479C28.0714 30.2365 28.0714 30.2252 28.0714 30.2138C28.0714 30.2025 28.0714 30.1912 28.0714 30.1799C28.0714 30.1688 28.0714 30.1575 28.0714 30.1464C28.0714 30.1351 28.0714 30.1239 28.0714 30.1128C28.0714 30.1015 28.0714 30.0904 28.0714 30.0794C28.0714 30.0682 28.0714 30.0571 28.0714 30.0461C28.0714 30.0349 28.0714 30.0239 28.0714 30.0129C28.0714 30.0019 28.0714 29.9909 28.0714 29.9799C28.0714 29.9689 28.0714 29.9581 28.0714 29.9471C28.0714 29.9362 28.0714 29.9252 28.0714 29.9144C28.0714 29.9035 28.0714 29.8926 28.0714 29.8819C28.0714 29.8711 28.0714 29.8602 28.0714 29.8495C28.0714 29.8386 28.0714 29.8279 28.0714 29.8172C28.0714 29.8065 28.0714 29.7958 28.0714 29.7851C28.0714 29.7744 28.0714 29.7638 28.0714 29.7531C28.0714 29.7425 28.0714 29.7319 28.0714 29.7212C28.0714 29.7106 28.0714 29.7001 28.0714 29.6896C28.0714 29.6791 28.0714 29.6685 28.0714 29.6581C28.0714 29.6475 28.0714 29.6371 28.0714 29.6266C28.0714 29.6162 28.0714 29.6058 28.0714 29.5954C28.0714 29.5849 28.0714 29.5746 28.0714 29.5642C28.0714 29.5539 28.0714 29.5436 28.0714 29.5334C28.0714 29.5229 28.0714 29.5126 28.0714 29.5025C28.0714 29.4922 28.0714 29.4819 28.0714 29.4718C28.0714 29.4615 28.0714 29.4514 28.0714 29.4412C28.0714 29.4311 28.0714 29.4209 28.0714 29.4108C28.0714 29.4006 28.0714 29.3905 28.0714 29.3805C28.0714 29.3704 28.0714 29.3604 28.0714 29.3504C28.0714 29.3404 28.0714 29.3304 28.0714 29.3204C28.0714 29.3104 28.0714 29.3004 28.0714 29.2905C28.0714 29.2805 28.0714 29.2706 28.0714 29.2608C28.0714 29.2509 28.0714 29.2411 28.0714 29.2312C28.0714 29.2214 28.0714 29.2115 28.0714 29.2018C28.0714 29.1919 28.0714 29.1822 28.0714 29.1724C28.0714 29.1626 28.0714 29.1529 28.0714 29.1432C28.0714 29.1335 28.0714 29.1238 28.0714 29.1142C28.0714 29.1045 28.0714 29.0949 28.0714 29.0852C28.0714 29.0756 28.0714 29.0661 28.0714 29.0565C28.0714 29.0469 28.0714 29.0374 28.0714 29.0279C28.0714 29.0184 28.0714 29.0088 28.0714 28.9994C28.0714 28.9899 28.0714 28.9805 28.0714 28.9711C28.0714 28.9616 28.0714 28.9522 28.0714 28.9428C28.0714 28.9334 28.0714 28.9241 28.0714 28.9146C28.0714 28.9054 28.0714 28.8961 28.0714 28.8868C28.0714 28.8774 28.0714 28.8681 28.0714 28.8589C28.0714 28.8496 28.0714 28.8404 28.0714 28.8312C28.0714 28.8219 28.0714 28.8128 28.0714 28.8036C28.0714 28.7945 28.0714 28.7854 28.0714 28.7762C28.0714 28.7671 28.0714 28.7579 28.0714 28.7489C28.0714 28.7398 28.0714 28.7308 28.0714 28.7218C28.0714 28.7126 28.0714 28.7036 28.0714 28.6946C28.0714 28.6856 28.0714 28.6768 28.0714 28.6678C28.0714 28.6588 28.0714 28.6499 28.0714 28.6411C28.0714 28.6321 28.0714 28.6232 28.0714 28.6144C28.0714 28.6055 28.0714 28.5966 28.0714 28.5879C28.0714 28.5791 28.0714 28.5702 28.0714 28.5615C28.0714 28.5528 28.0714 28.5439 28.0714 28.5352C28.0714 28.5265 28.0714 28.5178 28.0714 28.5091C28.0714 28.5004 28.0714 28.4918 28.0714 28.4831C28.0714 28.4745 28.0714 28.4658 28.0714 28.4572C28.0714 28.4486 28.0714 28.4401 28.0714 28.4315C28.0714 28.4229 28.0714 28.4144 28.0714 28.4059C28.0714 28.3974 28.0714 28.3889 28.0714 28.3804C28.0714 28.3719 28.0714 28.3635 28.0714 28.3551C28.0714 28.3466 28.0714 28.3382 28.0714 28.3298C28.0714 28.3215 28.0714 28.3131 28.0714 28.3048C28.0714 28.2964 28.0714 28.2881 28.0714 28.2798C28.0714 28.2715 28.0714 28.2632 28.0714 28.2549C28.0714 28.2466 28.0714 28.2384 28.0714 28.2302C28.0714 28.2219 28.0714 28.2138 28.0714 28.2056C28.0714 28.1975 28.0714 28.1892 28.0714 28.1811C28.0714 28.1731 28.0714 28.1649 28.0714 28.1568C28.0714 28.1486 28.0714 28.1406 28.0714 28.1326C28.0714 28.1245 28.0714 28.1165 28.0714 28.1085C28.0714 28.1005 28.0714 28.0925 28.0714 28.0845C28.0714 28.0765 28.0714 28.0686 28.0714 28.0606C28.0714 28.0528 28.0714 28.0448 28.0714 28.0369C28.0714 28.0291 28.0714 28.0212 28.0714 28.0134C28.0714 28.0055 28.0714 27.9976 28.0714 27.9898C28.0714 27.9821 28.0714 27.9742 28.0714 27.9665C28.0714 27.9588 28.0714 27.9509 28.0714 27.9432C28.0714 27.9355 28.0714 27.9278 28.0714 27.9201C28.0714 27.9125 28.0714 27.9048 28.0714 27.8971C28.0714 27.8895 28.0714 27.8819 28.0714 27.8742C28.0714 27.8666 28.0714 27.8591 28.0714 27.8515C28.0714 27.8439 28.0714 27.8364 28.0714 27.8289C28.0714 27.8214 28.0714 27.8138 28.0714 27.8064C28.0714 27.7989 28.0714 27.7914 28.0714 27.7839C28.0714 27.7765 28.0714 27.7691 28.0714 27.7616C28.0714 27.7544 28.0714 27.7469 28.0714 27.7395C28.0714 27.7322 28.0714 27.7248 28.0714 27.7175C28.0714 27.7102 28.0714 27.7029 28.0714 27.6956C28.0714 27.6884 28.0714 27.6811 28.0714 27.6738C28.0714 27.6665 28.0714 27.6594 28.0714 27.6521C28.0714 27.6449 28.0714 27.6378 28.0714 27.6305C28.0714 27.6234 28.0714 27.6162 28.0714 27.6091C28.0714 27.6019 28.0714 27.5949 28.0714 27.5878C28.0714 27.5806 28.0714 27.5736 28.0714 27.5666C28.0714 27.5595 28.0714 27.5525 28.0714 27.5455C28.0714 27.5385 28.0714 27.5315 28.0714 27.5245C28.0714 27.5175 28.0714 27.5106 28.0714 27.5036C28.0714 27.4966 28.0714 27.4898 28.0714 27.4829C28.0714 27.4759 28.0714 27.4691 28.0714 27.4622C28.0714 27.4554 28.0714 27.4485 28.0714 27.4418C28.0714 27.4349 28.0714 27.4281 28.0714 27.4214C28.0714 27.4145 28.0714 27.4078 28.0714 27.4011C28.0714 27.3944 28.0714 27.3875 28.0714 27.3809C28.0714 27.3742 28.0714 27.3675 28.0714 27.3608C28.0714 27.3541 28.0714 27.3475 28.0714 27.3408C28.0714 27.3342 28.0714 27.3276 28.0714 27.3211C28.0714 27.3144 28.0714 27.3078 28.0714 27.3012C28.0714 27.2948 28.0714 27.2882 28.0714 27.2816C28.0714 27.2752 28.0714 27.2686 28.0714 27.2622C28.0714 27.2556 28.0714 27.2492 28.0714 27.2428C28.0714 27.2364 28.0714 27.2299 28.0714 27.2235C28.0714 27.2171 28.0714 27.2106 28.0714 27.2044C28.0714 27.1979 28.0714 27.1916 28.0714 27.1852C28.0714 27.1789 28.0714 27.1726 28.0714 27.1664C28.0714 27.1601 28.0714 27.1538 28.0714 27.1475C28.0714 27.1412 28.0714 27.1349 28.0714 27.1288C28.0714 27.1225 28.0714 27.1164 28.0714 27.1101C28.0714 27.1039 28.0714 27.0978 28.0714 27.0916C28.0714 27.0855 28.0714 27.0794 28.0714 27.0732C28.0714 27.0671 28.0714 27.0611 28.0714 27.0549C28.0714 27.0488 28.0714 27.0428 28.0714 27.0368C28.0714 27.0306 28.0714 27.0246 28.0714 27.0186C28.0714 27.0126 28.0714 27.0066 28.0714 27.0006C28.0714 26.9948 28.0714 26.9888 28.0714 26.9828C28.0714 26.9769 28.0714 26.9709 28.0714 26.9651C28.0714 26.9592 28.0714 26.9534 28.0714 26.9474C28.0714 26.9415 28.0714 26.9356 28.0714 26.9299C28.0714 26.9241 28.0714 26.9182 28.0714 26.9125C28.0714 26.9066 28.0714 26.9009 28.0714 26.8951C28.0714 26.8894 28.0714 26.8836 28.0714 26.8779C28.0714 26.8722 28.0714 26.8665 28.0714 26.8608C28.0714 26.8551 28.0714 26.8494 28.0714 26.8438C28.0714 26.8381 28.0714 26.8325 28.0714 26.8268C28.0714 26.8212 28.0714 26.8156 28.0714 26.8101C28.0714 26.8044 28.0714 26.7988 28.0714 26.7934C28.0714 26.7878 28.0714 26.7822 28.0714 26.7766C28.0714 26.7712 28.0714 26.7656 28.0714 26.7602C28.0714 26.7546 28.0714 26.7492 28.0714 26.7438C28.0714 26.7384 28.0714 26.7329 28.0714 26.7275C28.0714 26.7221 28.0714 26.7166 28.0714 26.7114C28.0714 26.7059 28.0714 26.7005 28.0714 26.6952C28.0714 26.6898 28.0714 26.6845 28.0714 26.6792C28.0714 26.6739 28.0714 26.6686 28.0714 26.6634C28.0714 26.6581 28.0714 26.6528 28.0714 26.6475C28.0714 26.6422 28.0714 26.6371 28.0714 26.6318C28.0714 26.6266 28.0714 26.6214 28.0714 26.6162C28.0714 26.6111 28.0714 26.6059 28.0714 26.6008C28.0714 26.5956 28.0714 26.5905 28.0714 26.5854C28.0714 26.5802 28.0714 26.5752 28.0714 26.5701C28.0714 26.5649 28.0714 26.5599 28.0714 26.5549C28.0714 26.5498 28.0714 26.5448 28.0714 26.5398C28.0714 26.5348 28.0714 26.5298 28.0714 26.5248C28.0714 26.5198 28.0714 26.5148 28.0714 26.5099C28.0714 26.5049 28.0714 26.4999 28.0714 26.4951C28.0714 26.4902 28.0714 26.4852 28.0714 26.4804C28.0714 26.4755 28.0714 26.4706 28.0714 26.4658C28.0714 26.4609 28.0714 26.4561 28.0714 26.4512C28.0714 26.4464 28.0714 26.4416 28.0714 26.4368C28.0714 26.4321 28.0714 26.4272 28.0714 26.4225C28.0714 26.4178 28.0714 26.4131 28.0714 26.4082C28.0714 26.4035 28.0714 26.3988 28.0714 26.3942C28.0714 26.3895 28.0714 26.3848 28.0714 26.3801C28.0714 26.3755 28.0714 26.3708 28.0714 26.3662C28.0714 26.3615 28.0714 26.3569 28.0714 26.3524C28.0714 26.3478 28.0714 26.3431 28.0714 26.3386C28.0714 26.3341 28.0714 26.3295 28.0714 26.3249C28.0714 26.3204 28.0714 26.3158 28.0714 26.3114C28.0714 26.3068 28.0714 26.3024 28.0714 26.2979C28.0714 26.2934 28.0714 26.2889 28.0714 26.2845C28.0714 26.2801 28.0714 26.2756 28.0714 26.2712C28.0714 26.2668 28.0714 26.2624 28.0714 26.2581C28.0714 26.2536 28.0714 26.2492 28.0714 26.2449C28.0714 26.2405 28.0714 26.2362 28.0714 26.2319C28.0714 26.2275 28.0714 26.2232 28.0714 26.2189C28.0714 26.2146 28.0714 26.2104 28.0714 26.2061C28.0714 26.2019 28.0714 26.1976 28.0714 26.1934C28.0714 26.1892 28.0714 26.1849 28.0714 26.1808C28.0714 26.1765 28.0714 26.1724 28.0714 26.1682C28.0714 26.1641 28.0714 26.1598 28.0714 26.1556C28.0714 26.1515 28.0714 26.1475 28.0714 26.1434C28.0714 26.1392 28.0714 26.1351 28.0714 26.1311C28.0714 26.1269 28.0714 26.1229 28.0714 26.1188C28.0714 26.1148 28.0714 26.1108 28.0714 26.1066C28.0714 26.1026 28.0714 26.0986 28.0714 26.0946C28.0714 26.0906 28.0714 26.0866 28.0714 26.0828C28.0714 26.0788 28.0714 26.0748 28.0714 26.0709C28.0714 26.0669 28.0714 26.0631 28.0714 26.0591C28.0714 26.0552 28.0714 26.0514 28.0714 26.0474C28.0714 26.0435 28.0714 26.0396 28.0714 26.0358C28.0714 26.0319 28.0714 26.0282 28.0714 26.0244C28.0714 26.0205 28.0714 26.0166 28.0714 26.0129C28.0714 26.0091 28.0714 26.0054 28.0714 26.0015C28.0714 25.9978 28.0714 25.9941 28.0714 25.9904C28.0714 25.9865 28.0714 25.9828 28.0714 25.9791C28.0714 25.9754 28.0714 25.9718 28.0714 25.9681C28.0714 25.9644 28.0714 25.9606 28.0714 25.9571C28.0714 25.9534 28.0714 25.9498 28.0714 25.9461C28.0714 25.9425 28.0714 25.9389 28.0714 25.9354C28.0714 25.9316 28.0714 25.9281 28.0714 25.9245C28.0714 25.9209 28.0714 25.9174 28.0714 25.9139C28.0714 25.9104 28.0714 25.9068 28.0714 25.9034C28.0714 25.8998 28.0714 25.8962 28.0714 25.8928C28.0714 25.8894 28.0714 25.8858 28.0714 25.8824C28.0714 25.8789 28.0714 25.8755 28.0714 25.8721C28.0714 25.8686 28.0714 25.8652 28.0714 25.8618C28.0714 25.8584 28.0714 25.8549 28.0714 25.8516C28.0714 25.8482 28.0714 25.8448 28.0714 25.8415C28.0714 25.8381 28.0714 25.8348 28.0714 25.8315C28.0714 25.8281 28.0714 25.8248 28.0714 25.8215C28.0714 25.8182 28.0714 25.8149 28.0714 25.8116C28.0714 25.8084 28.0714 25.8051 28.0714 25.8019C28.0714 25.7986 28.0714 25.7954 28.0714 25.7922C28.0714 25.7889 28.0714 25.7858 28.0714 25.7825C28.0714 25.7794 28.0714 25.7762 28.0714 25.7731C28.0714 25.7698 28.0714 25.7666 28.0714 25.7635C28.0714 25.7604 28.0714 25.7572 28.0714 25.7542C28.0714 25.7511 28.0714 25.7479 28.0714 25.7448C28.0714 25.7418 28.0714 25.7386 28.0714 25.7356C28.0714 25.7325 28.0714 25.7295 28.0714 25.7265C28.0714 25.7234 28.0714 25.7204 28.0714 25.7174C28.0714 25.7144 28.0714 25.7114 28.0714 25.7084C28.0714 25.7054 28.0714 25.7024 28.0714 25.6995C28.0714 25.6965 28.0714 25.6935 28.0714 25.6906C28.0714 25.6876 28.0714 25.6848 28.0714 25.6818C28.0714 25.6789 28.0714 25.6759 28.0714 25.6731C28.0714 25.6702 28.0714 25.6674 28.0714 25.6645C28.0714 25.6616 28.0714 25.6588 28.0714 25.6559C28.0714 25.6531 28.0714 25.6502 28.0714 25.6475C28.0714 25.6446 28.0714 25.6418 28.0714 25.6391C28.0714 25.6362 28.0714 25.6335 28.0714 25.6306C28.0714 25.6279 28.0714 25.6252 28.0714 25.6225C28.0714 25.6196 28.0714 25.6169 28.0714 25.6142C28.0714 25.6115 28.0714 25.6088 28.0714 25.6061C28.0714 25.6034 28.0714 25.6008 28.0714 25.5981C28.0714 25.5954 28.0714 25.5928 28.0714 25.5901C28.0714 25.5875 28.0714 25.5848 28.0714 25.5822C28.0714 25.5795 28.0714 25.5769 28.0714 25.5744C28.0714 25.5718 28.0714 25.5692 28.0714 25.5666C28.0714 25.5641 28.0714 25.5615 28.0714 25.5589C28.0714 25.5564 28.0714 25.5538 28.0714 25.5512C28.0714 25.5488 28.0714 25.5462 28.0714 25.5438C28.0714 25.5412 28.0714 25.5388 28.0714 25.5362C28.0714 25.5338 28.0714 25.5314 28.0714 25.5288C28.0714 25.5264 28.0714 25.5239 28.0714 25.5215C28.0714 25.5191 28.0714 25.5166 28.0714 25.5142C28.0714 25.5118 28.0714 25.5094 28.0714 25.5071C28.0714 25.5046 28.0714 25.5022 28.0714 25.4999C28.0714 25.4975 28.0714 25.4951 28.0714 25.4928C28.0714 25.4905 28.0714 25.4881 28.0714 25.4858C28.0714 25.4835 28.0714 25.4811 28.0714 25.4788C28.0714 25.4765 28.0714 25.4742 28.0714 25.4719C28.0714 25.4696 28.0714 25.4674 28.0714 25.4652C28.0714 25.4629 28.0714 25.4606 28.0714 25.4584C28.0714 25.4562 28.0714 25.4539 28.0714 25.4518C28.0714 25.4495 28.0714 25.4474 28.0714 25.4451C28.0714 25.4429 28.0714 25.4408 28.0714 25.4386C28.0714 25.4364 28.0714 25.4342 28.0714 25.4321C28.0714 25.4299 28.0714 25.4278 28.0714 25.4256C28.0714 25.4235 28.0714 25.4215 28.0714 25.4194C28.0714 25.4172 28.0714 25.4151 28.0714 25.4131C28.0714 25.4109 28.0714 25.4089 28.0714 25.4068C28.0714 25.4048 28.0714 25.4026 28.0714 25.4006C28.0714 25.3986 28.0714 25.3965 28.0714 25.3945C28.0714 25.3925 28.0714 25.3905 28.0714 25.3885C28.0714 25.3865 28.0714 25.3845 28.0714 25.3825C28.0714 25.3805 28.0714 25.3785 28.0714 25.3766C28.0714 25.3746 28.0714 25.3726 28.0714 25.3708C28.0714 25.3688 28.0714 25.3669 28.0714 25.3649C28.0714 25.3631 28.0714 25.3611 28.0714 25.3592C28.0714 25.3574 28.0714 25.3554 28.0714 25.3535C28.0714 25.3516 28.0714 25.3498 28.0714 25.3479C28.0714 25.3461 28.0714 25.3442 28.0714 25.3424C28.0714 25.3405 28.0714 25.3386 28.0714 25.3369C28.0714 25.3351 28.0714 25.3332 28.0714 25.3315C28.0714 25.3296 28.0714 25.3279 28.0714 25.3261C28.0714 25.3244 28.0714 25.3225 28.0714 25.3208C28.0714 25.3189 28.0714 25.3172 28.0714 25.3155C28.0714 25.3138 28.0714 25.3121 28.0714 25.3104C28.0714 25.3086 28.0714 25.3069 28.0714 25.3052C28.0714 25.3035 28.0714 25.3018 28.0714 25.3001C28.0714 25.2984 28.0714 25.2966 28.0714 25.2951C28.0714 25.2934 28.0714 25.2916 28.0714 25.2901C28.0714 25.2884 28.0714 25.2868 28.0714 25.2852C28.0714 25.2835 28.0714 25.2819 28.0714 25.2802C28.0714 25.2786 28.0714 25.2771 28.0714 25.2755C28.0714 25.2739 28.0714 25.2724 28.0714 25.2708C28.0714 25.2692 28.0714 25.2676 28.0714 25.2661C28.0714 25.2645 28.0714 25.2629 28.0714 25.2614C28.0714 25.2598 28.0714 25.2584 28.0714 25.2568C28.0714 25.2552 28.0714 25.2538 28.0714 25.2522C28.0714 25.2508 28.0714 25.2492 28.0714 25.2478C28.0714 25.2464 28.0714 25.2448 28.0714 25.2434C28.0714 25.2419 28.0714 25.2405 28.0714 25.2389C28.0714 25.2375 28.0714 25.2361 28.0714 25.2346C28.0714 25.2332 28.0714 25.2318 28.0714 25.2304C28.0714 25.2289 28.0714 25.2276 28.0714 25.2262C28.0714 25.2248 28.0714 25.2234 28.0714 25.2221C28.0714 25.2206 28.0714 25.2192 28.0714 25.2179C28.0714 25.2165 28.0714 25.2152 28.0714 25.2138C28.0714 25.2125 28.0714 25.2112 28.0714 25.2098C28.0714 25.2085 28.0714 25.2072 28.0714 25.2059C28.0714 25.2045 28.0714 25.2032 28.0714 25.2019C28.0714 25.2006 28.0714 25.1994 28.0714 25.1981C28.0714 25.1968 28.0714 25.1955 28.0714 25.1944C28.0714 25.1931 28.0714 25.1918 28.0714 25.1905C28.0714 25.1894 28.0714 25.1881 28.0714 25.1868C28.0714 25.1856 28.0714 25.1844 28.0714 25.1832C28.0714 25.1819 28.0714 25.1808 28.0714 25.1795C28.0714 25.1784 28.0714 25.1772 28.0714 25.1759C28.0714 25.1748 28.0714 25.1736 28.0714 25.1725C28.0714 25.1714 28.0714 25.1701 28.0714 25.1689C28.0714 25.1678 28.0714 25.1666 28.0714 25.1655C28.0714 25.1644 28.0714 25.1634 28.0714 25.1622C28.0714 25.1611 28.0714 25.1599 28.0714 25.1588C28.0714 25.1578 28.0714 25.1566 28.0714 25.1555C28.0714 25.1545 28.0714 25.1534 28.0714 25.1524C28.0714 25.1512 28.0714 25.1502 28.0714 25.1491C28.0714 25.1481 28.0714 25.1471 28.0714 25.1459C28.0714 25.1449 28.0714 25.1439 28.0714 25.1428C28.0714 25.1418 28.0714 25.1408 28.0714 25.1398C28.0714 25.1388 28.0714 25.1378 28.0714 25.1368C28.0714 25.1358 28.0714 25.1348 28.0714 25.1338C28.0714 25.1328 28.0714 25.1318 28.0714 25.1309C28.0714 25.1299 28.0714 25.1289 28.0714 25.1279C28.0714 25.1271 28.0714 25.1261 28.0714 25.1251C28.0714 25.1242 28.0714 25.1232 28.0714 25.1224C28.0714 25.1214 28.0714 25.1205 28.0714 25.1195C28.0714 25.1186 28.0714 25.1178 28.0714 25.1168C28.0714 25.1159 28.0714 25.1151 28.0714 25.1142C28.0714 25.1134 28.0714 25.1124 28.0714 25.1115C28.0714 25.1106 28.0714 25.1098 28.0714 25.1089C28.0714 25.1081 28.0714 25.1072 28.0714 25.1064C28.0714 25.1055 28.0714 25.1046 28.0714 25.1039C28.0714 25.1031 28.0714 25.1022 28.0714 25.1014C28.0714 25.1006 28.0714 25.0998 28.0714 25.0989C28.0714 25.0982 28.0714 25.0974 28.0714 25.0965C28.0714 25.0958 28.0714 25.0949 28.0714 25.0942C28.0714 25.0935 28.0714 25.0926 28.0714 25.0919C28.0714 25.0911 28.0714 25.0904 28.0714 25.0896C28.0714 25.0888 28.0714 25.0881 28.0714 25.0874C28.0714 25.0866 28.0714 25.0859 28.0714 25.0852C28.0714 25.0845 28.0714 25.0836 28.0714 25.0829C28.0714 25.0822 28.0714 25.0815 28.0714 25.0809C28.0714 25.0802 28.0714 25.0795 28.0714 25.0788C28.0714 25.0781 28.0714 25.0774 28.0714 25.0768C28.0714 25.0761 28.0714 25.0754 28.0714 25.0746C28.0714 25.0741 28.0714 25.0734 28.0714 25.0726C28.0714 25.0721 28.0714 25.0714 28.0714 25.0708C28.0714 25.0701 28.0714 25.0695 28.0714 25.0688C28.0714 25.0682 28.0714 25.0676 28.0714 25.0669C28.0714 25.0664 28.0714 25.0658 28.0714 25.0651C28.0714 25.0645 28.0714 25.0639 28.0714 25.0634C28.0714 25.0628 28.0714 25.0621 28.0714 25.0615C28.0714 25.0609 28.0714 25.0604 28.0714 25.0598C28.0714 25.0592 28.0714 25.0586 28.0714 25.0581C28.0714 25.0575 28.0714 25.0569 28.0714 25.0564C28.0714 25.0558 28.0714 25.0554 28.0714 25.0548C28.0714 25.0542 28.0714 25.0536 28.0714 25.0532C28.0714 25.0526 28.0714 25.0521 28.0714 25.0515C28.0714 25.0511 28.0714 25.0505 28.0714 25.0501C28.0714 25.0495 28.0714 25.0491 28.0714 25.0485C28.0714 25.0479 28.0714 25.0475 28.0714 25.0471C28.0714 25.0465 28.0714 25.0461 28.0714 25.0455C28.0714 25.0451 28.0714 25.0446 28.0714 25.0441C28.0714 25.0436 28.0714 25.0445 28.0714 25.0441C28.0714 25.0435 28.0714 25.0418 28.0714 25.0414C28.0714 25.0409 28.0714 25.0418 28.0714 25.0414C28.0714 25.0409 28.0714 25.0392 28.0714 25.0388C28.0714 25.0384 28.0714 25.0392 28.0714 25.0388C28.0714 25.0384 28.0714 25.0366 28.0714 25.0362C28.0714 25.0358 28.0714 25.0366 28.0714 25.0362C28.0714 25.0358 28.0714 25.0342 28.0714 25.0338C28.0714 25.0334 28.0714 25.0341 28.0714 25.0338C28.0714 25.0334 28.0714 25.0318 28.0714 25.0315C28.0714 25.0311 28.0714 25.0319 28.0714 25.0315C28.0714 25.0311 28.0714 25.0296 28.0714 25.0292C28.0714 25.0289 28.0714 25.0295 28.0714 25.0292C28.0714 25.0289 28.0714 25.0275 28.0714 25.0272C28.0714 25.0268 28.0714 25.0275 28.0714 25.0272C28.0714 25.0268 28.0714 25.0255 28.0714 25.0252C28.0714 25.0249 28.0714 25.0255 28.0714 25.0252C28.0714 25.0249 28.0714 25.0236 28.0714 25.0234C28.0714 25.0229 28.0714 25.0236 28.0714 25.0234C28.0714 25.0231 28.0714 25.0218 28.0714 25.0215C28.0714 25.0212 28.0714 25.0218 28.0714 25.0215C28.0714 25.0212 28.0714 25.0201 28.0714 25.0198C28.0714 25.0195 28.0714 25.0201 28.0714 25.0198C28.0714 25.0195 28.0714 25.0185 28.0714 25.0182C28.0714 25.0179 28.0714 25.0185 28.0714 25.0182C28.0714 25.0181 28.0714 25.0169 28.0714 25.0166C28.0714 25.0164 28.0714 25.0148 28.0714 25.0145C28.0714 25.0144 28.0714 25.0128 28.0714 25.0126C28.0714 25.0125 28.0714 25.0111 28.0714 25.0109C28.0714 25.0108 28.0714 25.0095 28.0714 25.0092C28.0714 25.0091 28.0714 25.0081 28.0714 25.0078C28.0714 25.0076 28.0714 25.0064 28.0714 25.0062C28.0714 25.0061 28.0714 25.0064 28.0714 25.0062C28.0714 25.0061 28.0714 25.0049 28.0714 25.0048C28.0714 25.0046 28.0714 25.0032 28.0714 25.0031C28.0714 25.0031 28.0714 25.0018 28.0714 25.0016C28.0714 25.0015 28.0714 24.9999 28.0714 24.9999H27ZM28.0714 24.9999V17.8571H25.9286V24.9999H28.0714Z" fill="white"/>
<path d="M19.8571 23.9285C19.2654 23.9285 18.7857 24.4082 18.7857 24.9999C18.7857 25.5916 19.2654 26.0714 19.8571 26.0714M19.8571 23.9285V26.0714M19.8571 23.9285H27M19.8571 26.0714H27M27 26.0714C27.5917 26.0714 28.0714 25.5916 28.0714 24.9999M27 26.0714V23.9285M27 26.0714C26.4083 26.0714 25.9286 25.5916 25.9286 24.9999M27 26.0714H34.1429M28.0714 24.9999C28.0714 24.4082 27.5917 23.9285 27 23.9285M28.0714 24.9999H25.9286M28.0714 24.9999C28.0714 24.9999 28.0714 25.0015 28.0714 25.0016C28.0714 25.0018 28.0714 25.0031 28.0714 25.0031M28.0714 24.9999H27H25.9286M28.0714 24.9999V17.8571M27 23.9285C26.4083 23.9285 25.9286 24.4082 25.9286 24.9999M27 23.9285H34.1429M25.9286 24.9999V25.0014M25.9286 24.9999V17.8571M34.1429 26.0714C34.7346 26.0714 35.2143 25.5916 35.2143 24.9999C35.2143 24.4082 34.7346 23.9285 34.1429 23.9285M34.1429 26.0714V23.9285M25.9286 32.1428C25.9286 32.7345 26.4083 33.2142 27 33.2142C27.5917 33.2142 28.0714 32.7345 28.0714 32.1428M25.9286 32.1428H28.0714M25.9286 32.1428C25.9286 32.1288 25.9286 32.1149 25.9286 32.1011C25.9286 32.0871 25.9286 32.0732 25.9286 32.0594C25.9286 32.0455 25.9286 32.0318 25.9286 32.0179C25.9286 32.0042 25.9286 31.9904 25.9286 31.9766C25.9286 31.9629 25.9286 31.9492 25.9286 31.9355C25.9286 31.9219 25.9286 31.9082 25.9286 31.8946C25.9286 31.8809 25.9286 31.8674 25.9286 31.8538C25.9286 31.8402 25.9286 31.8266 25.9286 31.8132C25.9286 31.7996 25.9286 31.7862 25.9286 31.7726C25.9286 31.7592 25.9286 31.7458 25.9286 31.7324C25.9286 31.7189 25.9286 31.7056 25.9286 31.6922C25.9286 31.6789 25.9286 31.6655 25.9286 31.6522C25.9286 31.6389 25.9286 31.6256 25.9286 31.6124C25.9286 31.5992 25.9286 31.5859 25.9286 31.5728C25.9286 31.5595 25.9286 31.5464 25.9286 31.5332C25.9286 31.5201 25.9286 31.5069 25.9286 31.4938C25.9286 31.4808 25.9286 31.4676 25.9286 31.4546C25.9286 31.4416 25.9286 31.4286 25.9286 31.4156C25.9286 31.4026 25.9286 31.3896 25.9286 31.3768C25.9286 31.3638 25.9286 31.3509 25.9286 31.3381C25.9286 31.3251 25.9286 31.3122 25.9286 31.2995C25.9286 31.2866 25.9286 31.2738 25.9286 31.2611C25.9286 31.2482 25.9286 31.2355 25.9286 31.2228C25.9286 31.2101 25.9286 31.1974 25.9286 31.1846C25.9286 31.1719 25.9286 31.1594 25.9286 31.1468C25.9286 31.1341 25.9286 31.1215 25.9286 31.1089C25.9286 31.0964 25.9286 31.0838 25.9286 31.0714C25.9286 31.0588 25.9286 31.0464 25.9286 31.0338C25.9286 31.0214 25.9286 31.0089 25.9286 30.9965C25.9286 30.9841 25.9286 30.9716 25.9286 30.9594C25.9286 30.9469 25.9286 30.9346 25.9286 30.9224C25.9286 30.9101 25.9286 30.8978 25.9286 30.8855C25.9286 30.8732 25.9286 30.8609 25.9286 30.8488C25.9286 30.8365 25.9286 30.8244 25.9286 30.8122C25.9286 30.8001 25.9286 30.7879 25.9286 30.7758C25.9286 30.7636 25.9286 30.7516 25.9286 30.7395C25.9286 30.7275 25.9286 30.7155 25.9286 30.7035C25.9286 30.6915 25.9286 30.6795 25.9286 30.6675C25.9286 30.6555 25.9286 30.6436 25.9286 30.6316C25.9286 30.6198 25.9286 30.6079 25.9286 30.5961C25.9286 30.5842 25.9286 30.5724 25.9286 30.5605C25.9286 30.5488 25.9286 30.5369 25.9286 30.5252C25.9286 30.5135 25.9286 30.5018 25.9286 30.4901C25.9286 30.4784 25.9286 30.4666 25.9286 30.4549C25.9286 30.4434 25.9286 30.4316 25.9286 30.4201C25.9286 30.4085 25.9286 30.3969 25.9286 30.3854C25.9286 30.3738 25.9286 30.3622 25.9286 30.3508C25.9286 30.3392 25.9286 30.3278 25.9286 30.3164C25.9286 30.3048 25.9286 30.2934 25.9286 30.2821C25.9286 30.2706 25.9286 30.2592 25.9286 30.2479C25.9286 30.2365 25.9286 30.2252 25.9286 30.2138C25.9286 30.2025 25.9286 30.1912 25.9286 30.1799C25.9286 30.1688 25.9286 30.1575 25.9286 30.1464C25.9286 30.1351 25.9286 30.1239 25.9286 30.1128C25.9286 30.1015 25.9286 30.0904 25.9286 30.0794C25.9286 30.0682 25.9286 30.0571 25.9286 30.0461C25.9286 30.0349 25.9286 30.0239 25.9286 30.0129C25.9286 30.0019 25.9286 29.9909 25.9286 29.9799C25.9286 29.9689 25.9286 29.9581 25.9286 29.9471C25.9286 29.9362 25.9286 29.9252 25.9286 29.9144C25.9286 29.9035 25.9286 29.8926 25.9286 29.8819C25.9286 29.8711 25.9286 29.8602 25.9286 29.8495C25.9286 29.8386 25.9286 29.8279 25.9286 29.8172C25.9286 29.8065 25.9286 29.7958 25.9286 29.7851C25.9286 29.7744 25.9286 29.7638 25.9286 29.7531C25.9286 29.7425 25.9286 29.7319 25.9286 29.7212C25.9286 29.7106 25.9286 29.7001 25.9286 29.6896C25.9286 29.6791 25.9286 29.6685 25.9286 29.6581C25.9286 29.6475 25.9286 29.6371 25.9286 29.6266C25.9286 29.6162 25.9286 29.6058 25.9286 29.5954C25.9286 29.5849 25.9286 29.5746 25.9286 29.5642C25.9286 29.5539 25.9286 29.5436 25.9286 29.5334C25.9286 29.5229 25.9286 29.5126 25.9286 29.5025C25.9286 29.4922 25.9286 29.4819 25.9286 29.4718C25.9286 29.4615 25.9286 29.4514 25.9286 29.4412C25.9286 29.4311 25.9286 29.4209 25.9286 29.4108C25.9286 29.4006 25.9286 29.3905 25.9286 29.3805C25.9286 29.3704 25.9286 29.3604 25.9286 29.3504C25.9286 29.3404 25.9286 29.3304 25.9286 29.3204C25.9286 29.3104 25.9286 29.3004 25.9286 29.2905C25.9286 29.2805 25.9286 29.2706 25.9286 29.2608C25.9286 29.2509 25.9286 29.2411 25.9286 29.2312C25.9286 29.2214 25.9286 29.2115 25.9286 29.2018C25.9286 29.1919 25.9286 29.1822 25.9286 29.1724C25.9286 29.1626 25.9286 29.1529 25.9286 29.1432C25.9286 29.1335 25.9286 29.1238 25.9286 29.1142C25.9286 29.1045 25.9286 29.0949 25.9286 29.0852C25.9286 29.0756 25.9286 29.0661 25.9286 29.0565C25.9286 29.0469 25.9286 29.0374 25.9286 29.0279C25.9286 29.0184 25.9286 29.0088 25.9286 28.9994C25.9286 28.9899 25.9286 28.9805 25.9286 28.9711C25.9286 28.9616 25.9286 28.9522 25.9286 28.9428C25.9286 28.9334 25.9286 28.9241 25.9286 28.9146C25.9286 28.9054 25.9286 28.8961 25.9286 28.8868C25.9286 28.8774 25.9286 28.8681 25.9286 28.8589C25.9286 28.8496 25.9286 28.8404 25.9286 28.8312C25.9286 28.8219 25.9286 28.8128 25.9286 28.8036C25.9286 28.7945 25.9286 28.7854 25.9286 28.7762C25.9286 28.7671 25.9286 28.7579 25.9286 28.7489C25.9286 28.7398 25.9286 28.7308 25.9286 28.7218C25.9286 28.7126 25.9286 28.7036 25.9286 28.6946C25.9286 28.6856 25.9286 28.6768 25.9286 28.6678C25.9286 28.6588 25.9286 28.6499 25.9286 28.6411C25.9286 28.6321 25.9286 28.6232 25.9286 28.6144C25.9286 28.6055 25.9286 28.5966 25.9286 28.5879C25.9286 28.5791 25.9286 28.5702 25.9286 28.5615C25.9286 28.5528 25.9286 28.5439 25.9286 28.5352C25.9286 28.5265 25.9286 28.5178 25.9286 28.5091C25.9286 28.5004 25.9286 28.4918 25.9286 28.4831C25.9286 28.4745 25.9286 28.4658 25.9286 28.4572C25.9286 28.4486 25.9286 28.4401 25.9286 28.4315C25.9286 28.4229 25.9286 28.4144 25.9286 28.4059C25.9286 28.3974 25.9286 28.3889 25.9286 28.3804C25.9286 28.3719 25.9286 28.3635 25.9286 28.3551C25.9286 28.3466 25.9286 28.3382 25.9286 28.3298C25.9286 28.3215 25.9286 28.3131 25.9286 28.3048C25.9286 28.2964 25.9286 28.2881 25.9286 28.2798C25.9286 28.2715 25.9286 28.2632 25.9286 28.2549C25.9286 28.2466 25.9286 28.2384 25.9286 28.2302C25.9286 28.2219 25.9286 28.2138 25.9286 28.2056C25.9286 28.1975 25.9286 28.1892 25.9286 28.1811C25.9286 28.1731 25.9286 28.1649 25.9286 28.1568C25.9286 28.1486 25.9286 28.1406 25.9286 28.1326C25.9286 28.1245 25.9286 28.1165 25.9286 28.1085C25.9286 28.1005 25.9286 28.0925 25.9286 28.0845C25.9286 28.0765 25.9286 28.0686 25.9286 28.0606C25.9286 28.0528 25.9286 28.0448 25.9286 28.0369C25.9286 28.0291 25.9286 28.0212 25.9286 28.0134C25.9286 28.0055 25.9286 27.9976 25.9286 27.9898C25.9286 27.9821 25.9286 27.9742 25.9286 27.9665C25.9286 27.9588 25.9286 27.9509 25.9286 27.9432C25.9286 27.9355 25.9286 27.9278 25.9286 27.9201C25.9286 27.9125 25.9286 27.9048 25.9286 27.8971C25.9286 27.8895 25.9286 27.8819 25.9286 27.8742C25.9286 27.8666 25.9286 27.8591 25.9286 27.8515C25.9286 27.8439 25.9286 27.8364 25.9286 27.8289C25.9286 27.8214 25.9286 27.8138 25.9286 27.8064C25.9286 27.7989 25.9286 27.7914 25.9286 27.7839C25.9286 27.7765 25.9286 27.7691 25.9286 27.7616C25.9286 27.7544 25.9286 27.7469 25.9286 27.7395C25.9286 27.7322 25.9286 27.7248 25.9286 27.7175C25.9286 27.7102 25.9286 27.7029 25.9286 27.6956C25.9286 27.6884 25.9286 27.6811 25.9286 27.6738C25.9286 27.6665 25.9286 27.6594 25.9286 27.6521C25.9286 27.6449 25.9286 27.6378 25.9286 27.6305C25.9286 27.6234 25.9286 27.6162 25.9286 27.6091C25.9286 27.6019 25.9286 27.5949 25.9286 27.5878C25.9286 27.5806 25.9286 27.5736 25.9286 27.5666C25.9286 27.5595 25.9286 27.5525 25.9286 27.5455C25.9286 27.5385 25.9286 27.5315 25.9286 27.5245C25.9286 27.5175 25.9286 27.5106 25.9286 27.5036C25.9286 27.4966 25.9286 27.4898 25.9286 27.4829C25.9286 27.4759 25.9286 27.4691 25.9286 27.4622C25.9286 27.4554 25.9286 27.4485 25.9286 27.4418C25.9286 27.4349 25.9286 27.4281 25.9286 27.4214C25.9286 27.4145 25.9286 27.4078 25.9286 27.4011C25.9286 27.3944 25.9286 27.3875 25.9286 27.3809C25.9286 27.3742 25.9286 27.3675 25.9286 27.3608C25.9286 27.3541 25.9286 27.3475 25.9286 27.3408C25.9286 27.3342 25.9286 27.3276 25.9286 27.3211C25.9286 27.3144 25.9286 27.3078 25.9286 27.3012C25.9286 27.2948 25.9286 27.2882 25.9286 27.2816C25.9286 27.2752 25.9286 27.2686 25.9286 27.2622C25.9286 27.2556 25.9286 27.2492 25.9286 27.2428C25.9286 27.2364 25.9286 27.2299 25.9286 27.2235C25.9286 27.2171 25.9286 27.2106 25.9286 27.2044C25.9286 27.1979 25.9286 27.1916 25.9286 27.1852C25.9286 27.1789 25.9286 27.1726 25.9286 27.1664C25.9286 27.1601 25.9286 27.1538 25.9286 27.1475C25.9286 27.1412 25.9286 27.1349 25.9286 27.1288C25.9286 27.1225 25.9286 27.1164 25.9286 27.1101C25.9286 27.1039 25.9286 27.0978 25.9286 27.0916C25.9286 27.0855 25.9286 27.0794 25.9286 27.0732C25.9286 27.0671 25.9286 27.0611 25.9286 27.0549C25.9286 27.0488 25.9286 27.0428 25.9286 27.0368C25.9286 27.0306 25.9286 27.0246 25.9286 27.0186C25.9286 27.0126 25.9286 27.0066 25.9286 27.0006C25.9286 26.9948 25.9286 26.9888 25.9286 26.9828C25.9286 26.9769 25.9286 26.9709 25.9286 26.9651C25.9286 26.9592 25.9286 26.9534 25.9286 26.9474C25.9286 26.9415 25.9286 26.9356 25.9286 26.9299C25.9286 26.9241 25.9286 26.9182 25.9286 26.9125C25.9286 26.9066 25.9286 26.9009 25.9286 26.8951C25.9286 26.8894 25.9286 26.8836 25.9286 26.8779C25.9286 26.8722 25.9286 26.8665 25.9286 26.8608C25.9286 26.8551 25.9286 26.8494 25.9286 26.8438C25.9286 26.8381 25.9286 26.8325 25.9286 26.8268C25.9286 26.8212 25.9286 26.8156 25.9286 26.8101C25.9286 26.8044 25.9286 26.7988 25.9286 26.7934C25.9286 26.7878 25.9286 26.7822 25.9286 26.7766C25.9286 26.7712 25.9286 26.7656 25.9286 26.7602C25.9286 26.7546 25.9286 26.7492 25.9286 26.7438C25.9286 26.7384 25.9286 26.7329 25.9286 26.7275C25.9286 26.7221 25.9286 26.7166 25.9286 26.7114C25.9286 26.7059 25.9286 26.7005 25.9286 26.6952C25.9286 26.6898 25.9286 26.6845 25.9286 26.6792C25.9286 26.6739 25.9286 26.6686 25.9286 26.6634C25.9286 26.6581 25.9286 26.6528 25.9286 26.6475C25.9286 26.6422 25.9286 26.6371 25.9286 26.6318C25.9286 26.6266 25.9286 26.6214 25.9286 26.6162C25.9286 26.6111 25.9286 26.6059 25.9286 26.6008C25.9286 26.5956 25.9286 26.5905 25.9286 26.5854C25.9286 26.5802 25.9286 26.5752 25.9286 26.5701C25.9286 26.5649 25.9286 26.5599 25.9286 26.5549C25.9286 26.5498 25.9286 26.5448 25.9286 26.5398C25.9286 26.5348 25.9286 26.5298 25.9286 26.5248C25.9286 26.5198 25.9286 26.5148 25.9286 26.5099C25.9286 26.5049 25.9286 26.4999 25.9286 26.4951C25.9286 26.4902 25.9286 26.4852 25.9286 26.4804C25.9286 26.4755 25.9286 26.4706 25.9286 26.4658C25.9286 26.4609 25.9286 26.4561 25.9286 26.4512C25.9286 26.4464 25.9286 26.4416 25.9286 26.4368C25.9286 26.4321 25.9286 26.4272 25.9286 26.4225C25.9286 26.4178 25.9286 26.4131 25.9286 26.4082C25.9286 26.4035 25.9286 26.3988 25.9286 26.3942C25.9286 26.3895 25.9286 26.3848 25.9286 26.3801C25.9286 26.3755 25.9286 26.3708 25.9286 26.3662C25.9286 26.3615 25.9286 26.3569 25.9286 26.3524C25.9286 26.3478 25.9286 26.3431 25.9286 26.3386C25.9286 26.3341 25.9286 26.3295 25.9286 26.3249C25.9286 26.3204 25.9286 26.3158 25.9286 26.3114C25.9286 26.3068 25.9286 26.3024 25.9286 26.2979C25.9286 26.2934 25.9286 26.2889 25.9286 26.2845C25.9286 26.2801 25.9286 26.2756 25.9286 26.2712C25.9286 26.2668 25.9286 26.2624 25.9286 26.2581C25.9286 26.2536 25.9286 26.2492 25.9286 26.2449C25.9286 26.2405 25.9286 26.2362 25.9286 26.2319C25.9286 26.2275 25.9286 26.2232 25.9286 26.2189C25.9286 26.2146 25.9286 26.2104 25.9286 26.2061C25.9286 26.2019 25.9286 26.1976 25.9286 26.1934C25.9286 26.1892 25.9286 26.1849 25.9286 26.1808C25.9286 26.1765 25.9286 26.1724 25.9286 26.1682C25.9286 26.1641 25.9286 26.1598 25.9286 26.1556C25.9286 26.1515 25.9286 26.1475 25.9286 26.1434C25.9286 26.1392 25.9286 26.1351 25.9286 26.1311C25.9286 26.1269 25.9286 26.1229 25.9286 26.1188C25.9286 26.1148 25.9286 26.1108 25.9286 26.1066C25.9286 26.1026 25.9286 26.0986 25.9286 26.0946C25.9286 26.0906 25.9286 26.0866 25.9286 26.0828C25.9286 26.0788 25.9286 26.0748 25.9286 26.0709C25.9286 26.0669 25.9286 26.0631 25.9286 26.0591C25.9286 26.0552 25.9286 26.0514 25.9286 26.0474C25.9286 26.0435 25.9286 26.0396 25.9286 26.0358C25.9286 26.0319 25.9286 26.0282 25.9286 26.0244C25.9286 26.0205 25.9286 26.0166 25.9286 26.0129C25.9286 26.0091 25.9286 26.0054 25.9286 26.0015C25.9286 25.9978 25.9286 25.9941 25.9286 25.9904C25.9286 25.9865 25.9286 25.9828 25.9286 25.9791C25.9286 25.9754 25.9286 25.9718 25.9286 25.9681C25.9286 25.9644 25.9286 25.9606 25.9286 25.9571C25.9286 25.9534 25.9286 25.9498 25.9286 25.9461C25.9286 25.9425 25.9286 25.9389 25.9286 25.9354C25.9286 25.9316 25.9286 25.9281 25.9286 25.9245C25.9286 25.9209 25.9286 25.9174 25.9286 25.9139C25.9286 25.9104 25.9286 25.9068 25.9286 25.9034C25.9286 25.8998 25.9286 25.8962 25.9286 25.8928C25.9286 25.8894 25.9286 25.8858 25.9286 25.8824C25.9286 25.8789 25.9286 25.8755 25.9286 25.8721C25.9286 25.8686 25.9286 25.8652 25.9286 25.8618C25.9286 25.8584 25.9286 25.8549 25.9286 25.8516C25.9286 25.8482 25.9286 25.8448 25.9286 25.8415C25.9286 25.8381 25.9286 25.8348 25.9286 25.8315C25.9286 25.8281 25.9286 25.8248 25.9286 25.8215C25.9286 25.8182 25.9286 25.8149 25.9286 25.8116C25.9286 25.8084 25.9286 25.8051 25.9286 25.8019C25.9286 25.7986 25.9286 25.7954 25.9286 25.7922C25.9286 25.7889 25.9286 25.7858 25.9286 25.7825C25.9286 25.7794 25.9286 25.7762 25.9286 25.7731C25.9286 25.7698 25.9286 25.7666 25.9286 25.7635C25.9286 25.7604 25.9286 25.7572 25.9286 25.7542C25.9286 25.7511 25.9286 25.7479 25.9286 25.7448C25.9286 25.7418 25.9286 25.7386 25.9286 25.7356C25.9286 25.7325 25.9286 25.7295 25.9286 25.7265C25.9286 25.7234 25.9286 25.7204 25.9286 25.7174C25.9286 25.7144 25.9286 25.7114 25.9286 25.7084C25.9286 25.7054 25.9286 25.7024 25.9286 25.6995C25.9286 25.6965 25.9286 25.6935 25.9286 25.6906C25.9286 25.6876 25.9286 25.6848 25.9286 25.6818C25.9286 25.6789 25.9286 25.6759 25.9286 25.6731C25.9286 25.6702 25.9286 25.6674 25.9286 25.6645C25.9286 25.6616 25.9286 25.6588 25.9286 25.6559C25.9286 25.6531 25.9286 25.6502 25.9286 25.6475C25.9286 25.6446 25.9286 25.6418 25.9286 25.6391C25.9286 25.6362 25.9286 25.6335 25.9286 25.6306C25.9286 25.6279 25.9286 25.6252 25.9286 25.6225C25.9286 25.6196 25.9286 25.6169 25.9286 25.6142C25.9286 25.6115 25.9286 25.6088 25.9286 25.6061C25.9286 25.6034 25.9286 25.6008 25.9286 25.5981C25.9286 25.5954 25.9286 25.5928 25.9286 25.5901C25.9286 25.5875 25.9286 25.5848 25.9286 25.5822C25.9286 25.5795 25.9286 25.5769 25.9286 25.5744C25.9286 25.5718 25.9286 25.5692 25.9286 25.5666C25.9286 25.5641 25.9286 25.5615 25.9286 25.5589C25.9286 25.5564 25.9286 25.5538 25.9286 25.5512C25.9286 25.5488 25.9286 25.5462 25.9286 25.5438C25.9286 25.5412 25.9286 25.5388 25.9286 25.5362C25.9286 25.5338 25.9286 25.5314 25.9286 25.5288C25.9286 25.5264 25.9286 25.5239 25.9286 25.5215C25.9286 25.5191 25.9286 25.5166 25.9286 25.5142C25.9286 25.5118 25.9286 25.5094 25.9286 25.5071C25.9286 25.5046 25.9286 25.5022 25.9286 25.4999C25.9286 25.4975 25.9286 25.4951 25.9286 25.4928C25.9286 25.4905 25.9286 25.4881 25.9286 25.4858C25.9286 25.4835 25.9286 25.4811 25.9286 25.4788C25.9286 25.4765 25.9286 25.4742 25.9286 25.4719C25.9286 25.4696 25.9286 25.4674 25.9286 25.4652C25.9286 25.4629 25.9286 25.4606 25.9286 25.4584C25.9286 25.4562 25.9286 25.4539 25.9286 25.4518C25.9286 25.4495 25.9286 25.4474 25.9286 25.4451C25.9286 25.4429 25.9286 25.4408 25.9286 25.4386C25.9286 25.4364 25.9286 25.4342 25.9286 25.4321C25.9286 25.4299 25.9286 25.4278 25.9286 25.4256C25.9286 25.4235 25.9286 25.4215 25.9286 25.4194C25.9286 25.4172 25.9286 25.4151 25.9286 25.4131C25.9286 25.4109 25.9286 25.4089 25.9286 25.4068C25.9286 25.4048 25.9286 25.4026 25.9286 25.4006C25.9286 25.3986 25.9286 25.3965 25.9286 25.3945C25.9286 25.3925 25.9286 25.3905 25.9286 25.3885C25.9286 25.3865 25.9286 25.3845 25.9286 25.3825C25.9286 25.3805 25.9286 25.3785 25.9286 25.3766C25.9286 25.3746 25.9286 25.3726 25.9286 25.3708C25.9286 25.3688 25.9286 25.3669 25.9286 25.3649C25.9286 25.3631 25.9286 25.3611 25.9286 25.3592C25.9286 25.3574 25.9286 25.3554 25.9286 25.3535C25.9286 25.3516 25.9286 25.3498 25.9286 25.3479C25.9286 25.3461 25.9286 25.3442 25.9286 25.3424C25.9286 25.3405 25.9286 25.3386 25.9286 25.3369C25.9286 25.3351 25.9286 25.3332 25.9286 25.3315C25.9286 25.3296 25.9286 25.3279 25.9286 25.3261C25.9286 25.3244 25.9286 25.3225 25.9286 25.3208C25.9286 25.3189 25.9286 25.3172 25.9286 25.3155C25.9286 25.3138 25.9286 25.3121 25.9286 25.3104C25.9286 25.3086 25.9286 25.3069 25.9286 25.3052C25.9286 25.3035 25.9286 25.3018 25.9286 25.3001C25.9286 25.2984 25.9286 25.2966 25.9286 25.2951C25.9286 25.2934 25.9286 25.2916 25.9286 25.2901C25.9286 25.2884 25.9286 25.2868 25.9286 25.2852C25.9286 25.2835 25.9286 25.2819 25.9286 25.2802C25.9286 25.2786 25.9286 25.2771 25.9286 25.2755C25.9286 25.2739 25.9286 25.2724 25.9286 25.2708C25.9286 25.2692 25.9286 25.2676 25.9286 25.2661C25.9286 25.2645 25.9286 25.2629 25.9286 25.2614C25.9286 25.2598 25.9286 25.2584 25.9286 25.2568C25.9286 25.2552 25.9286 25.2538 25.9286 25.2522C25.9286 25.2508 25.9286 25.2492 25.9286 25.2478C25.9286 25.2464 25.9286 25.2448 25.9286 25.2434C25.9286 25.2419 25.9286 25.2405 25.9286 25.2389C25.9286 25.2375 25.9286 25.2361 25.9286 25.2346C25.9286 25.2332 25.9286 25.2318 25.9286 25.2304C25.9286 25.2289 25.9286 25.2276 25.9286 25.2262C25.9286 25.2248 25.9286 25.2234 25.9286 25.2221C25.9286 25.2206 25.9286 25.2192 25.9286 25.2179C25.9286 25.2165 25.9286 25.2152 25.9286 25.2138C25.9286 25.2125 25.9286 25.2112 25.9286 25.2098C25.9286 25.2085 25.9286 25.2072 25.9286 25.2059C25.9286 25.2045 25.9286 25.2032 25.9286 25.2019C25.9286 25.2006 25.9286 25.1994 25.9286 25.1981C25.9286 25.1968 25.9286 25.1955 25.9286 25.1944C25.9286 25.1931 25.9286 25.1918 25.9286 25.1905C25.9286 25.1894 25.9286 25.1881 25.9286 25.1868C25.9286 25.1856 25.9286 25.1844 25.9286 25.1832C25.9286 25.1819 25.9286 25.1808 25.9286 25.1795C25.9286 25.1784 25.9286 25.1772 25.9286 25.1759C25.9286 25.1748 25.9286 25.1736 25.9286 25.1725C25.9286 25.1714 25.9286 25.1701 25.9286 25.1689C25.9286 25.1678 25.9286 25.1666 25.9286 25.1655C25.9286 25.1644 25.9286 25.1634 25.9286 25.1622C25.9286 25.1611 25.9286 25.1599 25.9286 25.1588C25.9286 25.1578 25.9286 25.1566 25.9286 25.1555C25.9286 25.1545 25.9286 25.1534 25.9286 25.1524C25.9286 25.1512 25.9286 25.1502 25.9286 25.1491C25.9286 25.1481 25.9286 25.1471 25.9286 25.1459C25.9286 25.1449 25.9286 25.1439 25.9286 25.1428C25.9286 25.1418 25.9286 25.1408 25.9286 25.1398C25.9286 25.1388 25.9286 25.1378 25.9286 25.1368C25.9286 25.1358 25.9286 25.1348 25.9286 25.1338C25.9286 25.1328 25.9286 25.1318 25.9286 25.1309C25.9286 25.1299 25.9286 25.1289 25.9286 25.1279C25.9286 25.1271 25.9286 25.1261 25.9286 25.1251C25.9286 25.1242 25.9286 25.1232 25.9286 25.1224C25.9286 25.1214 25.9286 25.1205 25.9286 25.1195C25.9286 25.1186 25.9286 25.1178 25.9286 25.1168C25.9286 25.1159 25.9286 25.1151 25.9286 25.1142C25.9286 25.1134 25.9286 25.1124 25.9286 25.1115C25.9286 25.1106 25.9286 25.1098 25.9286 25.1089C25.9286 25.1081 25.9286 25.1072 25.9286 25.1064C25.9286 25.1055 25.9286 25.1046 25.9286 25.1039C25.9286 25.1031 25.9286 25.1022 25.9286 25.1014C25.9286 25.1006 25.9286 25.0998 25.9286 25.0989C25.9286 25.0982 25.9286 25.0974 25.9286 25.0965C25.9286 25.0958 25.9286 25.0949 25.9286 25.0942C25.9286 25.0935 25.9286 25.0926 25.9286 25.0919C25.9286 25.0911 25.9286 25.0904 25.9286 25.0896C25.9286 25.0888 25.9286 25.0881 25.9286 25.0874C25.9286 25.0866 25.9286 25.0859 25.9286 25.0852C25.9286 25.0845 25.9286 25.0836 25.9286 25.0829C25.9286 25.0822 25.9286 25.0815 25.9286 25.0809C25.9286 25.0802 25.9286 25.0795 25.9286 25.0788C25.9286 25.0781 25.9286 25.0774 25.9286 25.0768C25.9286 25.0761 25.9286 25.0754 25.9286 25.0746C25.9286 25.0741 25.9286 25.0734 25.9286 25.0726C25.9286 25.0721 25.9286 25.0714 25.9286 25.0708C25.9286 25.0701 25.9286 25.0695 25.9286 25.0688C25.9286 25.0682 25.9286 25.0676 25.9286 25.0669C25.9286 25.0664 25.9286 25.0658 25.9286 25.0651C25.9286 25.0645 25.9286 25.0639 25.9286 25.0634C25.9286 25.0628 25.9286 25.0621 25.9286 25.0615C25.9286 25.0609 25.9286 25.0604 25.9286 25.0598C25.9286 25.0592 25.9286 25.0586 25.9286 25.0581C25.9286 25.0575 25.9286 25.0569 25.9286 25.0564C25.9286 25.0558 25.9286 25.0554 25.9286 25.0548C25.9286 25.0542 25.9286 25.0536 25.9286 25.0532C25.9286 25.0526 25.9286 25.0521 25.9286 25.0515C25.9286 25.0511 25.9286 25.0505 25.9286 25.0501C25.9286 25.0495 25.9286 25.0491 25.9286 25.0485C25.9286 25.0479 25.9286 25.0475 25.9286 25.0471C25.9286 25.0465 25.9286 25.0461 25.9286 25.0455C25.9286 25.0451 25.9286 25.0434 25.9286 25.0428M28.0714 32.1428C28.0714 32.1288 28.0714 32.1149 28.0714 32.1011C28.0714 32.0871 28.0714 32.0732 28.0714 32.0594C28.0714 32.0455 28.0714 32.0318 28.0714 32.0179C28.0714 32.0042 28.0714 31.9904 28.0714 31.9766C28.0714 31.9629 28.0714 31.9492 28.0714 31.9355C28.0714 31.9219 28.0714 31.9082 28.0714 31.8946C28.0714 31.8809 28.0714 31.8674 28.0714 31.8538C28.0714 31.8402 28.0714 31.8266 28.0714 31.8132C28.0714 31.7996 28.0714 31.7862 28.0714 31.7726C28.0714 31.7592 28.0714 31.7458 28.0714 31.7324C28.0714 31.7189 28.0714 31.7056 28.0714 31.6922C28.0714 31.6789 28.0714 31.6655 28.0714 31.6522C28.0714 31.6389 28.0714 31.6256 28.0714 31.6124C28.0714 31.5992 28.0714 31.5859 28.0714 31.5728C28.0714 31.5595 28.0714 31.5464 28.0714 31.5332C28.0714 31.5201 28.0714 31.5069 28.0714 31.4938C28.0714 31.4808 28.0714 31.4676 28.0714 31.4546C28.0714 31.4416 28.0714 31.4286 28.0714 31.4156C28.0714 31.4026 28.0714 31.3896 28.0714 31.3768C28.0714 31.3638 28.0714 31.3509 28.0714 31.3381C28.0714 31.3251 28.0714 31.3122 28.0714 31.2995C28.0714 31.2866 28.0714 31.2738 28.0714 31.2611C28.0714 31.2482 28.0714 31.2355 28.0714 31.2228C28.0714 31.2101 28.0714 31.1974 28.0714 31.1846C28.0714 31.1719 28.0714 31.1594 28.0714 31.1468C28.0714 31.1341 28.0714 31.1215 28.0714 31.1089C28.0714 31.0964 28.0714 31.0838 28.0714 31.0714C28.0714 31.0588 28.0714 31.0464 28.0714 31.0338C28.0714 31.0214 28.0714 31.0089 28.0714 30.9965C28.0714 30.9841 28.0714 30.9716 28.0714 30.9594C28.0714 30.9469 28.0714 30.9346 28.0714 30.9224C28.0714 30.9101 28.0714 30.8978 28.0714 30.8855C28.0714 30.8732 28.0714 30.8609 28.0714 30.8488C28.0714 30.8365 28.0714 30.8244 28.0714 30.8122C28.0714 30.8001 28.0714 30.7879 28.0714 30.7758C28.0714 30.7636 28.0714 30.7516 28.0714 30.7395C28.0714 30.7275 28.0714 30.7155 28.0714 30.7035C28.0714 30.6915 28.0714 30.6795 28.0714 30.6675C28.0714 30.6555 28.0714 30.6436 28.0714 30.6316C28.0714 30.6198 28.0714 30.6079 28.0714 30.5961C28.0714 30.5842 28.0714 30.5724 28.0714 30.5605C28.0714 30.5488 28.0714 30.5369 28.0714 30.5252C28.0714 30.5135 28.0714 30.5018 28.0714 30.4901C28.0714 30.4784 28.0714 30.4666 28.0714 30.4549C28.0714 30.4434 28.0714 30.4316 28.0714 30.4201C28.0714 30.4085 28.0714 30.3969 28.0714 30.3854C28.0714 30.3738 28.0714 30.3622 28.0714 30.3508C28.0714 30.3392 28.0714 30.3278 28.0714 30.3164C28.0714 30.3048 28.0714 30.2934 28.0714 30.2821C28.0714 30.2706 28.0714 30.2592 28.0714 30.2479C28.0714 30.2365 28.0714 30.2252 28.0714 30.2138C28.0714 30.2025 28.0714 30.1912 28.0714 30.1799C28.0714 30.1688 28.0714 30.1575 28.0714 30.1464C28.0714 30.1351 28.0714 30.1239 28.0714 30.1128C28.0714 30.1015 28.0714 30.0904 28.0714 30.0794C28.0714 30.0682 28.0714 30.0571 28.0714 30.0461C28.0714 30.0349 28.0714 30.0239 28.0714 30.0129C28.0714 30.0019 28.0714 29.9909 28.0714 29.9799C28.0714 29.9689 28.0714 29.9581 28.0714 29.9471C28.0714 29.9362 28.0714 29.9252 28.0714 29.9144C28.0714 29.9035 28.0714 29.8926 28.0714 29.8819C28.0714 29.8711 28.0714 29.8602 28.0714 29.8495C28.0714 29.8386 28.0714 29.8279 28.0714 29.8172C28.0714 29.8065 28.0714 29.7958 28.0714 29.7851C28.0714 29.7744 28.0714 29.7638 28.0714 29.7531C28.0714 29.7425 28.0714 29.7319 28.0714 29.7212C28.0714 29.7106 28.0714 29.7001 28.0714 29.6896C28.0714 29.6791 28.0714 29.6685 28.0714 29.6581C28.0714 29.6475 28.0714 29.6371 28.0714 29.6266C28.0714 29.6162 28.0714 29.6058 28.0714 29.5954C28.0714 29.5849 28.0714 29.5746 28.0714 29.5642C28.0714 29.5539 28.0714 29.5436 28.0714 29.5334C28.0714 29.5229 28.0714 29.5126 28.0714 29.5025C28.0714 29.4922 28.0714 29.4819 28.0714 29.4718C28.0714 29.4615 28.0714 29.4514 28.0714 29.4412C28.0714 29.4311 28.0714 29.4209 28.0714 29.4108C28.0714 29.4006 28.0714 29.3905 28.0714 29.3805C28.0714 29.3704 28.0714 29.3604 28.0714 29.3504C28.0714 29.3404 28.0714 29.3304 28.0714 29.3204C28.0714 29.3104 28.0714 29.3004 28.0714 29.2905C28.0714 29.2805 28.0714 29.2706 28.0714 29.2608C28.0714 29.2509 28.0714 29.2411 28.0714 29.2312C28.0714 29.2214 28.0714 29.2115 28.0714 29.2018C28.0714 29.1919 28.0714 29.1822 28.0714 29.1724C28.0714 29.1626 28.0714 29.1529 28.0714 29.1432C28.0714 29.1335 28.0714 29.1238 28.0714 29.1142C28.0714 29.1045 28.0714 29.0949 28.0714 29.0852C28.0714 29.0756 28.0714 29.0661 28.0714 29.0565C28.0714 29.0469 28.0714 29.0374 28.0714 29.0279C28.0714 29.0184 28.0714 29.0088 28.0714 28.9994C28.0714 28.9899 28.0714 28.9805 28.0714 28.9711C28.0714 28.9616 28.0714 28.9522 28.0714 28.9428C28.0714 28.9334 28.0714 28.9241 28.0714 28.9146C28.0714 28.9054 28.0714 28.8961 28.0714 28.8868C28.0714 28.8774 28.0714 28.8681 28.0714 28.8589C28.0714 28.8496 28.0714 28.8404 28.0714 28.8312C28.0714 28.8219 28.0714 28.8128 28.0714 28.8036C28.0714 28.7945 28.0714 28.7854 28.0714 28.7762C28.0714 28.7671 28.0714 28.7579 28.0714 28.7489C28.0714 28.7398 28.0714 28.7308 28.0714 28.7218C28.0714 28.7126 28.0714 28.7036 28.0714 28.6946C28.0714 28.6856 28.0714 28.6768 28.0714 28.6678C28.0714 28.6588 28.0714 28.6499 28.0714 28.6411C28.0714 28.6321 28.0714 28.6232 28.0714 28.6144C28.0714 28.6055 28.0714 28.5966 28.0714 28.5879C28.0714 28.5791 28.0714 28.5702 28.0714 28.5615C28.0714 28.5528 28.0714 28.5439 28.0714 28.5352C28.0714 28.5265 28.0714 28.5178 28.0714 28.5091C28.0714 28.5004 28.0714 28.4918 28.0714 28.4831C28.0714 28.4745 28.0714 28.4658 28.0714 28.4572C28.0714 28.4486 28.0714 28.4401 28.0714 28.4315C28.0714 28.4229 28.0714 28.4144 28.0714 28.4059C28.0714 28.3974 28.0714 28.3889 28.0714 28.3804C28.0714 28.3719 28.0714 28.3635 28.0714 28.3551C28.0714 28.3466 28.0714 28.3382 28.0714 28.3298C28.0714 28.3215 28.0714 28.3131 28.0714 28.3048C28.0714 28.2964 28.0714 28.2881 28.0714 28.2798C28.0714 28.2715 28.0714 28.2632 28.0714 28.2549C28.0714 28.2466 28.0714 28.2384 28.0714 28.2302C28.0714 28.2219 28.0714 28.2138 28.0714 28.2056C28.0714 28.1975 28.0714 28.1892 28.0714 28.1811C28.0714 28.1731 28.0714 28.1649 28.0714 28.1568C28.0714 28.1486 28.0714 28.1406 28.0714 28.1326C28.0714 28.1245 28.0714 28.1165 28.0714 28.1085C28.0714 28.1005 28.0714 28.0925 28.0714 28.0845C28.0714 28.0765 28.0714 28.0686 28.0714 28.0606C28.0714 28.0528 28.0714 28.0448 28.0714 28.0369C28.0714 28.0291 28.0714 28.0212 28.0714 28.0134C28.0714 28.0055 28.0714 27.9976 28.0714 27.9898C28.0714 27.9821 28.0714 27.9742 28.0714 27.9665C28.0714 27.9588 28.0714 27.9509 28.0714 27.9432C28.0714 27.9355 28.0714 27.9278 28.0714 27.9201C28.0714 27.9125 28.0714 27.9048 28.0714 27.8971C28.0714 27.8895 28.0714 27.8819 28.0714 27.8742C28.0714 27.8666 28.0714 27.8591 28.0714 27.8515C28.0714 27.8439 28.0714 27.8364 28.0714 27.8289C28.0714 27.8214 28.0714 27.8138 28.0714 27.8064C28.0714 27.7989 28.0714 27.7914 28.0714 27.7839C28.0714 27.7765 28.0714 27.7691 28.0714 27.7616C28.0714 27.7544 28.0714 27.7469 28.0714 27.7395C28.0714 27.7322 28.0714 27.7248 28.0714 27.7175C28.0714 27.7102 28.0714 27.7029 28.0714 27.6956C28.0714 27.6884 28.0714 27.6811 28.0714 27.6738C28.0714 27.6665 28.0714 27.6594 28.0714 27.6521C28.0714 27.6449 28.0714 27.6378 28.0714 27.6305C28.0714 27.6234 28.0714 27.6162 28.0714 27.6091C28.0714 27.6019 28.0714 27.5949 28.0714 27.5878C28.0714 27.5806 28.0714 27.5736 28.0714 27.5666C28.0714 27.5595 28.0714 27.5525 28.0714 27.5455C28.0714 27.5385 28.0714 27.5315 28.0714 27.5245C28.0714 27.5175 28.0714 27.5106 28.0714 27.5036C28.0714 27.4966 28.0714 27.4898 28.0714 27.4829C28.0714 27.4759 28.0714 27.4691 28.0714 27.4622C28.0714 27.4554 28.0714 27.4485 28.0714 27.4418C28.0714 27.4349 28.0714 27.4281 28.0714 27.4214C28.0714 27.4145 28.0714 27.4078 28.0714 27.4011C28.0714 27.3944 28.0714 27.3875 28.0714 27.3809C28.0714 27.3742 28.0714 27.3675 28.0714 27.3608C28.0714 27.3541 28.0714 27.3475 28.0714 27.3408C28.0714 27.3342 28.0714 27.3276 28.0714 27.3211C28.0714 27.3144 28.0714 27.3078 28.0714 27.3012C28.0714 27.2948 28.0714 27.2882 28.0714 27.2816C28.0714 27.2752 28.0714 27.2686 28.0714 27.2622C28.0714 27.2556 28.0714 27.2492 28.0714 27.2428C28.0714 27.2364 28.0714 27.2299 28.0714 27.2235C28.0714 27.2171 28.0714 27.2106 28.0714 27.2044C28.0714 27.1979 28.0714 27.1916 28.0714 27.1852C28.0714 27.1789 28.0714 27.1726 28.0714 27.1664C28.0714 27.1601 28.0714 27.1538 28.0714 27.1475C28.0714 27.1412 28.0714 27.1349 28.0714 27.1288C28.0714 27.1225 28.0714 27.1164 28.0714 27.1101C28.0714 27.1039 28.0714 27.0978 28.0714 27.0916C28.0714 27.0855 28.0714 27.0794 28.0714 27.0732C28.0714 27.0671 28.0714 27.0611 28.0714 27.0549C28.0714 27.0488 28.0714 27.0428 28.0714 27.0368C28.0714 27.0306 28.0714 27.0246 28.0714 27.0186C28.0714 27.0126 28.0714 27.0066 28.0714 27.0006C28.0714 26.9948 28.0714 26.9888 28.0714 26.9828C28.0714 26.9769 28.0714 26.9709 28.0714 26.9651C28.0714 26.9592 28.0714 26.9534 28.0714 26.9474C28.0714 26.9415 28.0714 26.9356 28.0714 26.9299C28.0714 26.9241 28.0714 26.9182 28.0714 26.9125C28.0714 26.9066 28.0714 26.9009 28.0714 26.8951C28.0714 26.8894 28.0714 26.8836 28.0714 26.8779C28.0714 26.8722 28.0714 26.8665 28.0714 26.8608C28.0714 26.8551 28.0714 26.8494 28.0714 26.8438C28.0714 26.8381 28.0714 26.8325 28.0714 26.8268C28.0714 26.8212 28.0714 26.8156 28.0714 26.8101C28.0714 26.8044 28.0714 26.7988 28.0714 26.7934C28.0714 26.7878 28.0714 26.7822 28.0714 26.7766C28.0714 26.7712 28.0714 26.7656 28.0714 26.7602C28.0714 26.7546 28.0714 26.7492 28.0714 26.7438C28.0714 26.7384 28.0714 26.7329 28.0714 26.7275C28.0714 26.7221 28.0714 26.7166 28.0714 26.7114C28.0714 26.7059 28.0714 26.7005 28.0714 26.6952C28.0714 26.6898 28.0714 26.6845 28.0714 26.6792C28.0714 26.6739 28.0714 26.6686 28.0714 26.6634C28.0714 26.6581 28.0714 26.6528 28.0714 26.6475C28.0714 26.6422 28.0714 26.6371 28.0714 26.6318C28.0714 26.6266 28.0714 26.6214 28.0714 26.6162C28.0714 26.6111 28.0714 26.6059 28.0714 26.6008C28.0714 26.5956 28.0714 26.5905 28.0714 26.5854C28.0714 26.5802 28.0714 26.5752 28.0714 26.5701C28.0714 26.5649 28.0714 26.5599 28.0714 26.5549C28.0714 26.5498 28.0714 26.5448 28.0714 26.5398C28.0714 26.5348 28.0714 26.5298 28.0714 26.5248C28.0714 26.5198 28.0714 26.5148 28.0714 26.5099C28.0714 26.5049 28.0714 26.4999 28.0714 26.4951C28.0714 26.4902 28.0714 26.4852 28.0714 26.4804C28.0714 26.4755 28.0714 26.4706 28.0714 26.4658C28.0714 26.4609 28.0714 26.4561 28.0714 26.4512C28.0714 26.4464 28.0714 26.4416 28.0714 26.4368C28.0714 26.4321 28.0714 26.4272 28.0714 26.4225C28.0714 26.4178 28.0714 26.4131 28.0714 26.4082C28.0714 26.4035 28.0714 26.3988 28.0714 26.3942C28.0714 26.3895 28.0714 26.3848 28.0714 26.3801C28.0714 26.3755 28.0714 26.3708 28.0714 26.3662C28.0714 26.3615 28.0714 26.3569 28.0714 26.3524C28.0714 26.3478 28.0714 26.3431 28.0714 26.3386C28.0714 26.3341 28.0714 26.3295 28.0714 26.3249C28.0714 26.3204 28.0714 26.3158 28.0714 26.3114C28.0714 26.3068 28.0714 26.3024 28.0714 26.2979C28.0714 26.2934 28.0714 26.2889 28.0714 26.2845C28.0714 26.2801 28.0714 26.2756 28.0714 26.2712C28.0714 26.2668 28.0714 26.2624 28.0714 26.2581C28.0714 26.2536 28.0714 26.2492 28.0714 26.2449C28.0714 26.2405 28.0714 26.2362 28.0714 26.2319C28.0714 26.2275 28.0714 26.2232 28.0714 26.2189C28.0714 26.2146 28.0714 26.2104 28.0714 26.2061C28.0714 26.2019 28.0714 26.1976 28.0714 26.1934C28.0714 26.1892 28.0714 26.1849 28.0714 26.1808C28.0714 26.1765 28.0714 26.1724 28.0714 26.1682C28.0714 26.1641 28.0714 26.1598 28.0714 26.1556C28.0714 26.1515 28.0714 26.1475 28.0714 26.1434C28.0714 26.1392 28.0714 26.1351 28.0714 26.1311C28.0714 26.1269 28.0714 26.1229 28.0714 26.1188C28.0714 26.1148 28.0714 26.1108 28.0714 26.1066C28.0714 26.1026 28.0714 26.0986 28.0714 26.0946C28.0714 26.0906 28.0714 26.0866 28.0714 26.0828C28.0714 26.0788 28.0714 26.0748 28.0714 26.0709C28.0714 26.0669 28.0714 26.0631 28.0714 26.0591C28.0714 26.0552 28.0714 26.0514 28.0714 26.0474C28.0714 26.0435 28.0714 26.0396 28.0714 26.0358C28.0714 26.0319 28.0714 26.0282 28.0714 26.0244C28.0714 26.0205 28.0714 26.0166 28.0714 26.0129C28.0714 26.0091 28.0714 26.0054 28.0714 26.0015C28.0714 25.9978 28.0714 25.9941 28.0714 25.9904C28.0714 25.9865 28.0714 25.9828 28.0714 25.9791C28.0714 25.9754 28.0714 25.9718 28.0714 25.9681C28.0714 25.9644 28.0714 25.9606 28.0714 25.9571C28.0714 25.9534 28.0714 25.9498 28.0714 25.9461C28.0714 25.9425 28.0714 25.9389 28.0714 25.9354C28.0714 25.9316 28.0714 25.9281 28.0714 25.9245C28.0714 25.9209 28.0714 25.9174 28.0714 25.9139C28.0714 25.9104 28.0714 25.9068 28.0714 25.9034C28.0714 25.8998 28.0714 25.8962 28.0714 25.8928C28.0714 25.8894 28.0714 25.8858 28.0714 25.8824C28.0714 25.8789 28.0714 25.8755 28.0714 25.8721C28.0714 25.8686 28.0714 25.8652 28.0714 25.8618C28.0714 25.8584 28.0714 25.8549 28.0714 25.8516C28.0714 25.8482 28.0714 25.8448 28.0714 25.8415C28.0714 25.8381 28.0714 25.8348 28.0714 25.8315C28.0714 25.8281 28.0714 25.8248 28.0714 25.8215C28.0714 25.8182 28.0714 25.8149 28.0714 25.8116C28.0714 25.8084 28.0714 25.8051 28.0714 25.8019C28.0714 25.7986 28.0714 25.7954 28.0714 25.7922C28.0714 25.7889 28.0714 25.7858 28.0714 25.7825C28.0714 25.7794 28.0714 25.7762 28.0714 25.7731C28.0714 25.7698 28.0714 25.7666 28.0714 25.7635C28.0714 25.7604 28.0714 25.7572 28.0714 25.7542C28.0714 25.7511 28.0714 25.7479 28.0714 25.7448C28.0714 25.7418 28.0714 25.7386 28.0714 25.7356C28.0714 25.7325 28.0714 25.7295 28.0714 25.7265C28.0714 25.7234 28.0714 25.7204 28.0714 25.7174C28.0714 25.7144 28.0714 25.7114 28.0714 25.7084C28.0714 25.7054 28.0714 25.7024 28.0714 25.6995C28.0714 25.6965 28.0714 25.6935 28.0714 25.6906C28.0714 25.6876 28.0714 25.6848 28.0714 25.6818C28.0714 25.6789 28.0714 25.6759 28.0714 25.6731C28.0714 25.6702 28.0714 25.6674 28.0714 25.6645C28.0714 25.6616 28.0714 25.6588 28.0714 25.6559C28.0714 25.6531 28.0714 25.6502 28.0714 25.6475C28.0714 25.6446 28.0714 25.6418 28.0714 25.6391C28.0714 25.6362 28.0714 25.6335 28.0714 25.6306C28.0714 25.6279 28.0714 25.6252 28.0714 25.6225C28.0714 25.6196 28.0714 25.6169 28.0714 25.6142C28.0714 25.6115 28.0714 25.6088 28.0714 25.6061C28.0714 25.6034 28.0714 25.6008 28.0714 25.5981C28.0714 25.5954 28.0714 25.5928 28.0714 25.5901C28.0714 25.5875 28.0714 25.5848 28.0714 25.5822C28.0714 25.5795 28.0714 25.5769 28.0714 25.5744C28.0714 25.5718 28.0714 25.5692 28.0714 25.5666C28.0714 25.5641 28.0714 25.5615 28.0714 25.5589C28.0714 25.5564 28.0714 25.5538 28.0714 25.5512C28.0714 25.5488 28.0714 25.5462 28.0714 25.5438C28.0714 25.5412 28.0714 25.5388 28.0714 25.5362C28.0714 25.5338 28.0714 25.5314 28.0714 25.5288C28.0714 25.5264 28.0714 25.5239 28.0714 25.5215C28.0714 25.5191 28.0714 25.5166 28.0714 25.5142C28.0714 25.5118 28.0714 25.5094 28.0714 25.5071C28.0714 25.5046 28.0714 25.5022 28.0714 25.4999C28.0714 25.4975 28.0714 25.4951 28.0714 25.4928C28.0714 25.4905 28.0714 25.4881 28.0714 25.4858C28.0714 25.4835 28.0714 25.4811 28.0714 25.4788C28.0714 25.4765 28.0714 25.4742 28.0714 25.4719C28.0714 25.4696 28.0714 25.4674 28.0714 25.4652C28.0714 25.4629 28.0714 25.4606 28.0714 25.4584C28.0714 25.4562 28.0714 25.4539 28.0714 25.4518C28.0714 25.4495 28.0714 25.4474 28.0714 25.4451C28.0714 25.4429 28.0714 25.4408 28.0714 25.4386C28.0714 25.4364 28.0714 25.4342 28.0714 25.4321C28.0714 25.4299 28.0714 25.4278 28.0714 25.4256C28.0714 25.4235 28.0714 25.4215 28.0714 25.4194C28.0714 25.4172 28.0714 25.4151 28.0714 25.4131C28.0714 25.4109 28.0714 25.4089 28.0714 25.4068C28.0714 25.4048 28.0714 25.4026 28.0714 25.4006C28.0714 25.3986 28.0714 25.3965 28.0714 25.3945C28.0714 25.3925 28.0714 25.3905 28.0714 25.3885C28.0714 25.3865 28.0714 25.3845 28.0714 25.3825C28.0714 25.3805 28.0714 25.3785 28.0714 25.3766C28.0714 25.3746 28.0714 25.3726 28.0714 25.3708C28.0714 25.3688 28.0714 25.3669 28.0714 25.3649C28.0714 25.3631 28.0714 25.3611 28.0714 25.3592C28.0714 25.3574 28.0714 25.3554 28.0714 25.3535C28.0714 25.3516 28.0714 25.3498 28.0714 25.3479C28.0714 25.3461 28.0714 25.3442 28.0714 25.3424C28.0714 25.3405 28.0714 25.3386 28.0714 25.3369C28.0714 25.3351 28.0714 25.3332 28.0714 25.3315C28.0714 25.3296 28.0714 25.3279 28.0714 25.3261C28.0714 25.3244 28.0714 25.3225 28.0714 25.3208C28.0714 25.3189 28.0714 25.3172 28.0714 25.3155C28.0714 25.3138 28.0714 25.3121 28.0714 25.3104C28.0714 25.3086 28.0714 25.3069 28.0714 25.3052C28.0714 25.3035 28.0714 25.3018 28.0714 25.3001C28.0714 25.2984 28.0714 25.2966 28.0714 25.2951C28.0714 25.2934 28.0714 25.2916 28.0714 25.2901C28.0714 25.2884 28.0714 25.2868 28.0714 25.2852C28.0714 25.2835 28.0714 25.2819 28.0714 25.2802C28.0714 25.2786 28.0714 25.2771 28.0714 25.2755C28.0714 25.2739 28.0714 25.2724 28.0714 25.2708C28.0714 25.2692 28.0714 25.2676 28.0714 25.2661C28.0714 25.2645 28.0714 25.2629 28.0714 25.2614C28.0714 25.2598 28.0714 25.2584 28.0714 25.2568C28.0714 25.2552 28.0714 25.2538 28.0714 25.2522C28.0714 25.2508 28.0714 25.2492 28.0714 25.2478C28.0714 25.2464 28.0714 25.2448 28.0714 25.2434C28.0714 25.2419 28.0714 25.2405 28.0714 25.2389C28.0714 25.2375 28.0714 25.2361 28.0714 25.2346C28.0714 25.2332 28.0714 25.2318 28.0714 25.2304C28.0714 25.2289 28.0714 25.2276 28.0714 25.2262C28.0714 25.2248 28.0714 25.2234 28.0714 25.2221C28.0714 25.2206 28.0714 25.2192 28.0714 25.2179C28.0714 25.2165 28.0714 25.2152 28.0714 25.2138C28.0714 25.2125 28.0714 25.2112 28.0714 25.2098C28.0714 25.2085 28.0714 25.2072 28.0714 25.2059C28.0714 25.2045 28.0714 25.2032 28.0714 25.2019C28.0714 25.2006 28.0714 25.1994 28.0714 25.1981C28.0714 25.1968 28.0714 25.1955 28.0714 25.1944C28.0714 25.1931 28.0714 25.1918 28.0714 25.1905C28.0714 25.1894 28.0714 25.1881 28.0714 25.1868C28.0714 25.1856 28.0714 25.1844 28.0714 25.1832C28.0714 25.1819 28.0714 25.1808 28.0714 25.1795C28.0714 25.1784 28.0714 25.1772 28.0714 25.1759C28.0714 25.1748 28.0714 25.1736 28.0714 25.1725C28.0714 25.1714 28.0714 25.1701 28.0714 25.1689C28.0714 25.1678 28.0714 25.1666 28.0714 25.1655C28.0714 25.1644 28.0714 25.1634 28.0714 25.1622C28.0714 25.1611 28.0714 25.1599 28.0714 25.1588C28.0714 25.1578 28.0714 25.1566 28.0714 25.1555C28.0714 25.1545 28.0714 25.1534 28.0714 25.1524C28.0714 25.1512 28.0714 25.1502 28.0714 25.1491C28.0714 25.1481 28.0714 25.1471 28.0714 25.1459C28.0714 25.1449 28.0714 25.1439 28.0714 25.1428C28.0714 25.1418 28.0714 25.1408 28.0714 25.1398C28.0714 25.1388 28.0714 25.1378 28.0714 25.1368C28.0714 25.1358 28.0714 25.1348 28.0714 25.1338C28.0714 25.1328 28.0714 25.1318 28.0714 25.1309C28.0714 25.1299 28.0714 25.1289 28.0714 25.1279C28.0714 25.1271 28.0714 25.1261 28.0714 25.1251C28.0714 25.1242 28.0714 25.1232 28.0714 25.1224C28.0714 25.1214 28.0714 25.1205 28.0714 25.1195C28.0714 25.1186 28.0714 25.1178 28.0714 25.1168C28.0714 25.1159 28.0714 25.1151 28.0714 25.1142C28.0714 25.1134 28.0714 25.1124 28.0714 25.1115C28.0714 25.1106 28.0714 25.1098 28.0714 25.1089C28.0714 25.1081 28.0714 25.1072 28.0714 25.1064C28.0714 25.1055 28.0714 25.1046 28.0714 25.1039C28.0714 25.1031 28.0714 25.1022 28.0714 25.1014C28.0714 25.1006 28.0714 25.0998 28.0714 25.0989C28.0714 25.0982 28.0714 25.0974 28.0714 25.0965C28.0714 25.0958 28.0714 25.0949 28.0714 25.0942C28.0714 25.0935 28.0714 25.0926 28.0714 25.0919C28.0714 25.0911 28.0714 25.0904 28.0714 25.0896C28.0714 25.0888 28.0714 25.0881 28.0714 25.0874C28.0714 25.0866 28.0714 25.0859 28.0714 25.0852C28.0714 25.0845 28.0714 25.0836 28.0714 25.0829C28.0714 25.0822 28.0714 25.0815 28.0714 25.0809C28.0714 25.0802 28.0714 25.0795 28.0714 25.0788C28.0714 25.0781 28.0714 25.0774 28.0714 25.0768C28.0714 25.0761 28.0714 25.0754 28.0714 25.0746C28.0714 25.0741 28.0714 25.0734 28.0714 25.0726C28.0714 25.0721 28.0714 25.0714 28.0714 25.0708C28.0714 25.0701 28.0714 25.0695 28.0714 25.0688C28.0714 25.0682 28.0714 25.0676 28.0714 25.0669C28.0714 25.0664 28.0714 25.0658 28.0714 25.0651C28.0714 25.0645 28.0714 25.0639 28.0714 25.0634C28.0714 25.0628 28.0714 25.0621 28.0714 25.0615C28.0714 25.0609 28.0714 25.0604 28.0714 25.0598C28.0714 25.0592 28.0714 25.0586 28.0714 25.0581C28.0714 25.0575 28.0714 25.0569 28.0714 25.0564C28.0714 25.0558 28.0714 25.0554 28.0714 25.0548C28.0714 25.0542 28.0714 25.0536 28.0714 25.0532C28.0714 25.0526 28.0714 25.0521 28.0714 25.0515C28.0714 25.0511 28.0714 25.0505 28.0714 25.0501C28.0714 25.0495 28.0714 25.0491 28.0714 25.0485C28.0714 25.0479 28.0714 25.0475 28.0714 25.0471C28.0714 25.0465 28.0714 25.0461 28.0714 25.0455C28.0714 25.0451 28.0714 25.0446 28.0714 25.0441M28.0714 17.8571C28.0714 17.2653 27.5917 16.7856 27 16.7856C26.4083 16.7856 25.9286 17.2653 25.9286 17.8571M28.0714 17.8571H25.9286M25.9286 25.0014C25.9286 25.0015 25.9286 25.0012 25.9286 25.0014ZM25.9286 25.0014C25.9286 25.0015 25.9286 25.0031 25.9286 25.0031M25.9286 25.0031C25.9286 25.0032 25.9286 25.0029 25.9286 25.0031ZM25.9286 25.0031C25.9286 25.0031 25.9286 25.0046 25.9286 25.0048M25.9286 25.0048C25.9286 25.0049 25.9286 25.0046 25.9286 25.0048ZM25.9286 25.0048C25.9286 25.0049 25.9286 25.0061 25.9286 25.0062M25.9286 25.0062C25.9286 25.0064 25.9286 25.0061 25.9286 25.0062ZM25.9286 25.0062C25.9286 25.0064 25.9286 25.0076 25.9286 25.0078M25.9286 25.0078C25.9286 25.0081 25.9286 25.0076 25.9286 25.0078ZM25.9286 25.0078C25.9286 25.0079 25.9286 25.0091 25.9286 25.0092M25.9286 25.0092C25.9286 25.0095 25.9286 25.0091 25.9286 25.0092ZM25.9286 25.0092C25.9286 25.0094 25.9286 25.0106 25.9286 25.0109M25.9286 25.0109C25.9286 25.0111 25.9286 25.0108 25.9286 25.0109ZM25.9286 25.0109C25.9286 25.0111 25.9286 25.0124 25.9286 25.0126M25.9286 25.0126C25.9286 25.0128 25.9286 25.0125 25.9286 25.0126ZM25.9286 25.0126C25.9286 25.0128 25.9286 25.0144 25.9286 25.0145M25.9286 25.0145C25.9286 25.0148 25.9286 25.0142 25.9286 25.0145ZM25.9286 25.0145C25.9286 25.0148 25.9286 25.0156 25.9286 25.0159M25.9286 25.0159C25.9286 25.0162 25.9286 25.0156 25.9286 25.0159ZM25.9286 25.0159C25.9286 25.0162 25.9286 25.0172 25.9286 25.0174M25.9286 25.0174C25.9286 25.0176 25.9286 25.0171 25.9286 25.0174ZM25.9286 25.0174C25.9286 25.0176 25.9286 25.0186 25.9286 25.0189M25.9286 25.0189C25.9286 25.0192 25.9286 25.0186 25.9286 25.0189ZM25.9286 25.0189C25.9286 25.0192 25.9286 25.0204 25.9286 25.0206M25.9286 25.0206C25.9286 25.0209 25.9286 25.0204 25.9286 25.0206ZM25.9286 25.0206C25.9286 25.0209 25.9286 25.0221 25.9286 25.0224M25.9286 25.0224C25.9286 25.0226 25.9286 25.0219 25.9286 25.0224ZM25.9286 25.0224C25.9286 25.0226 25.9286 25.0239 25.9286 25.0242M25.9286 25.0242C25.9286 25.0245 25.9286 25.0239 25.9286 25.0242ZM25.9286 25.0242C25.9286 25.0245 25.9286 25.0258 25.9286 25.0262M25.9286 25.0262C25.9286 25.0265 25.9286 25.0258 25.9286 25.0262ZM25.9286 25.0262C25.9286 25.0265 25.9286 25.0279 25.9286 25.0282M25.9286 25.0282C25.9286 25.0285 25.9286 25.0279 25.9286 25.0282ZM25.9286 25.0282C25.9286 25.0286 25.9286 25.0299 25.9286 25.0304M25.9286 25.0304C25.9286 25.0308 25.9286 25.0299 25.9286 25.0304ZM25.9286 25.0304C25.9286 25.0306 25.9286 25.0322 25.9286 25.0326M25.9286 25.0326C25.9286 25.0329 25.9286 25.0322 25.9286 25.0326ZM25.9286 25.0326C25.9286 25.0331 25.9286 25.0345 25.9286 25.0349M25.9286 25.0349C25.9286 25.0354 25.9286 25.0345 25.9286 25.0349ZM25.9286 25.0349C25.9286 25.0354 25.9286 25.0371 25.9286 25.0375M25.9286 25.0375C25.9286 25.0379 25.9286 25.0371 25.9286 25.0375ZM25.9286 25.0375C25.9286 25.0379 25.9286 25.0396 25.9286 25.0401M25.9286 25.0401C25.9286 25.0405 25.9286 25.0396 25.9286 25.0401ZM25.9286 25.0401C25.9286 25.0405 25.9286 25.0422 25.9286 25.0428M25.9286 25.0428C25.9286 25.0432 25.9286 25.0424 25.9286 25.0428ZM28.0714 25.0441C28.0714 25.0436 28.0714 25.0445 28.0714 25.0441ZM28.0714 25.0441C28.0714 25.0435 28.0714 25.0418 28.0714 25.0414M28.0714 25.0414C28.0714 25.0409 28.0714 25.0418 28.0714 25.0414ZM28.0714 25.0414C28.0714 25.0409 28.0714 25.0392 28.0714 25.0388M28.0714 25.0388C28.0714 25.0384 28.0714 25.0392 28.0714 25.0388ZM28.0714 25.0388C28.0714 25.0384 28.0714 25.0366 28.0714 25.0362M28.0714 25.0362C28.0714 25.0358 28.0714 25.0366 28.0714 25.0362ZM28.0714 25.0362C28.0714 25.0358 28.0714 25.0342 28.0714 25.0338M28.0714 25.0338C28.0714 25.0334 28.0714 25.0341 28.0714 25.0338ZM28.0714 25.0338C28.0714 25.0334 28.0714 25.0318 28.0714 25.0315M28.0714 25.0315C28.0714 25.0311 28.0714 25.0319 28.0714 25.0315ZM28.0714 25.0315C28.0714 25.0311 28.0714 25.0296 28.0714 25.0292M28.0714 25.0292C28.0714 25.0289 28.0714 25.0295 28.0714 25.0292ZM28.0714 25.0292C28.0714 25.0289 28.0714 25.0275 28.0714 25.0272M28.0714 25.0272C28.0714 25.0268 28.0714 25.0275 28.0714 25.0272ZM28.0714 25.0272C28.0714 25.0268 28.0714 25.0255 28.0714 25.0252M28.0714 25.0252C28.0714 25.0249 28.0714 25.0255 28.0714 25.0252ZM28.0714 25.0252C28.0714 25.0249 28.0714 25.0236 28.0714 25.0234M28.0714 25.0234C28.0714 25.0229 28.0714 25.0236 28.0714 25.0234ZM28.0714 25.0234C28.0714 25.0231 28.0714 25.0218 28.0714 25.0215M28.0714 25.0215C28.0714 25.0212 28.0714 25.0218 28.0714 25.0215ZM28.0714 25.0215C28.0714 25.0212 28.0714 25.0201 28.0714 25.0198M28.0714 25.0198C28.0714 25.0195 28.0714 25.0201 28.0714 25.0198ZM28.0714 25.0198C28.0714 25.0195 28.0714 25.0185 28.0714 25.0182M28.0714 25.0182C28.0714 25.0179 28.0714 25.0185 28.0714 25.0182ZM28.0714 25.0182C28.0714 25.0181 28.0714 25.0169 28.0714 25.0166M28.0714 25.0166C28.0714 25.0164 28.0714 25.0169 28.0714 25.0166ZM28.0714 25.0166C28.0714 25.0164 28.0714 25.0148 28.0714 25.0145M28.0714 25.0145C28.0714 25.0144 28.0714 25.0146 28.0714 25.0145ZM28.0714 25.0145C28.0714 25.0144 28.0714 25.0128 28.0714 25.0126M28.0714 25.0126C28.0714 25.0124 28.0714 25.0128 28.0714 25.0126ZM28.0714 25.0126C28.0714 25.0125 28.0714 25.0111 28.0714 25.0109M28.0714 25.0109C28.0714 25.0106 28.0714 25.0111 28.0714 25.0109ZM28.0714 25.0109C28.0714 25.0108 28.0714 25.0095 28.0714 25.0092M28.0714 25.0092C28.0714 25.0091 28.0714 25.0094 28.0714 25.0092ZM28.0714 25.0092C28.0714 25.0091 28.0714 25.0081 28.0714 25.0078M28.0714 25.0078C28.0714 25.0076 28.0714 25.0079 28.0714 25.0078ZM28.0714 25.0078C28.0714 25.0076 28.0714 25.0064 28.0714 25.0062M28.0714 25.0062C28.0714 25.0061 28.0714 25.0064 28.0714 25.0062ZM28.0714 25.0062C28.0714 25.0061 28.0714 25.0049 28.0714 25.0048C28.0714 25.0046 28.0714 25.0032 28.0714 25.0031M28.0714 25.0031C28.0714 25.0029 28.0714 25.0032 28.0714 25.0031Z" stroke="white"/>
</g>
<defs>
<filter id="filter0_d_64_171" x="0" y="0" width="54" height="54" filterUnits="userSpaceOnUse" color-interpolation-filters="sRGB">
<feFlood flood-opacity="0" result="BackgroundImageFix"/>
<feColorMatrix in="SourceAlpha" type="matrix" values="0 0 0 0 0 0 0 0 0 0 0 0 0 0 0 0 0 0 127 0" result="hardAlpha"/>
<feOffset dy="2"/>
<feGaussianBlur stdDeviation="1"/>
<feComposite in2="hardAlpha" operator="out"/>
<feColorMatrix type="matrix" values="0 0 0 0 0 0 0 0 0 0 0 0 0 0 0 0 0 0 0.05 0"/>
<feBlend mode="normal" in2="BackgroundImageFix" result="effect1_dropShadow_64_171"/>
<feBlend mode="normal" in="SourceGraphic" in2="effect1_dropShadow_64_171" result="shape"/>
</filter>
</defs>
</svg>
