<svg width="22" height="21" viewBox="0 0 22 21"  fill="#00DFA2" xmlns="http://www.w3.org/2000/svg">
<path d="M11 0C13.7848 0 16.4555 1.10625 18.4246 3.07538C20.3938 5.04451 21.5 7.71523 21.5 10.5C21.5 13.2848 20.3938 15.9555 18.4246 17.9246C16.4555 19.8938 13.7848 21 11 21C8.21523 21 5.54451 19.8938 3.57538 17.9246C1.60625 15.9555 0.5 13.2848 0.5 10.5C0.5 7.71523 1.60625 5.04451 3.57538 3.07538C5.54451 1.10625 8.21523 0 11 0ZM9.692 12.5715L7.3595 10.2375C7.27588 10.1539 7.17661 10.0876 7.06736 10.0423C6.9581 9.99704 6.84101 9.97375 6.72275 9.97375C6.60449 9.97375 6.4874 9.99704 6.37814 10.0423C6.26889 10.0876 6.16962 10.1539 6.086 10.2375C5.91712 10.4064 5.82225 10.6354 5.82225 10.8743C5.82225 11.1131 5.91712 11.3421 6.086 11.511L9.056 14.481C9.13938 14.565 9.23858 14.6317 9.34786 14.6773C9.45715 14.7228 9.57436 14.7462 9.69275 14.7462C9.81114 14.7462 9.92835 14.7228 10.0376 14.6773C10.1469 14.6317 10.2461 14.565 10.3295 14.481L16.4795 8.3295C16.5642 8.24623 16.6316 8.147 16.6778 8.03755C16.724 7.92809 16.7481 7.81057 16.7487 7.69177C16.7492 7.57297 16.7262 7.45523 16.6811 7.34535C16.6359 7.23547 16.5694 7.13562 16.4854 7.05156C16.4015 6.96751 16.3017 6.9009 16.1919 6.8556C16.0821 6.81029 15.9644 6.78718 15.8455 6.78759C15.7267 6.788 15.6092 6.81193 15.4997 6.858C15.3902 6.90407 15.2909 6.97136 15.2075 7.056L9.692 12.5715Z"/>
</svg>
